Foldit-Thin-Condensed.ufo
<glyph name="numbersign.color1" format="2">
  <advance width="600"/>
  <unicode hex="0023"/>
  <outline>
    <contour>
      <point x="242" y="202" type="line"/>
      <point x="32" y="202" type="line"/>
      <point x="35" y="226" type="line"/>
      <point x="245" y="226" type="line"/>
      <point x="245" y="225" type="line"/>
    </contour>
  </outline>
</glyph>
<glyph name="dollar.color5" format="2">
  <advance width="600"/>
  <unicode hex="0024"/>
  <outline>
    <contour>
      <point x="76" y="353" type="line"/>
      <point x="53" y="376" type="line"/>
      <point x="53" y="377" type="line"/>
      <point x="176" y="377" type="line"/>
      <point x="176" y="354" type="line"/>
      <point x="176" y="353" type="line"/>
    </contour>
  </outline>
</glyph>
<glyph name="percent.color8" format="2">
  <advance width="600"/>
  <unicode hex="0025"/>
  <outline>
    <contour>
      <point x="284" y="20" type="line"/>
      <point x="261" y="43" type="line"/>
      <point x="261" y="44" type="line"/>
      <point x="335" y="44" type="line"/>
      <point x="335" y="20" type="line"/>
    </contour>
  </outline>
</glyph>
<glyph name="comma.color1" format="2">
  <advance width="600"/>
  <unicode hex="002C"/>
  <outline>
    <contour>
      <point x="64" y="-18" type="line"/>
      <point x="41" y="-41" type="line"/>
      <point x="40" y="-41" type="line"/>
      <point x="40" y="50" type="line"/>
      <point x="64" y="50" type="line"/>
    </contour>
  </outline>
</glyph>
<glyph name="three.color3" format="2">
  <advance width="600"/>
  <unicode hex="0033"/>
  <outline>
    <contour>
      <point x="65" y="403" type="line"/>
      <point x="65" y="427" type="line"/>
      <point x="193" y="427" type="line"/>
      <point x="193" y="403" type="line"/>
    </contour>
  </outline>
</glyph>
<glyph name="four.color1" format="2">
  <advance width="600"/>
  <unicode hex="0034"/>
  <outline>
    <contour>
      <point x="129" y="670" type="line"/>
      <point x="152" y="670" type="line"/>
      <point x="152" y="669" type="line"/>
      <point x="66" y="274" type="line"/>
      <point x="43" y="307" type="line"/>
    </contour>
  </outline>
</glyph>
<glyph name="question.color2" format="2">
  <advance width="600"/>
  <unicode hex="003F"/>
  <outline>
    <contour>
      <point x="66" y="104" type="line"/>
      <point x="66" y="253" type="line"/>
      <point x="89" y="277" type="line"/>
      <point x="90" y="277" type="line"/>
      <point x="90" y="104" type="line"/>
    </contour>
  </outline>
</glyph>
<glyph name="question" format="2">
  <advance width="213"/>
  <unicode hex="003F"/>
  <outline>
    <contour>
      <point x="160" y="677" type="line"/>
      <point x="160" y="277" type="line"/>
      <point x="137" y="277" type="line"/>
      <point x="136" y="277" type="line"/>
      <point x="136" y="700" type="line"/>
      <point x="137" y="700" type="line"/>
    </contour>
    <contour>
      <point x="36" y="700" type="line"/>
      <point x="136" y="700" type="line"/>
      <point x="136" y="676" type="line"/>
      <point x="13" y="676" type="line"/>
      <point x="13" y="677" type="line"/>
    </contour>
    <contour>
      <point x="66" y="104" type="line"/>
      <point x="66" y="253" type="line"/>
      <point x="89" y="277" type="line"/>
      <point x="90" y="277" type="line"/>
      <point x="90" y="104" type="line"/>
    </contour>
    <contour>
      <point x="137" y="253" type="line"/>
      <point x="90" y="253" type="line"/>
      <point x="90" y="277" type="line"/>
      <point x="160" y="277" type="line"/>
      <point x="160" y="276" type="line"/>
    </contour>
    <component base="period" xOffset="10"/>
  </outline>
</glyph>
<glyph name="J.color2" format="2">
  <advance width="600"/>
  <unicode hex="004A"/>
  <outline>
    <contour>
      <point x="234" y="676" type="line"/>
      <point x="164" y="676" type="line"/>
      <point x="164" y="700" type="line"/>
      <point x="234" y="700" type="line"/>
    </contour>
  </outline>
</glyph>
<glyph name="K" format="2">
  <advance width="296"/>
  <unicode hex="004B"/>
  <anchor x="152" y="0" name="bottom"/>
  <outline>
    <contour>
      <point x="53" y="700" type="line"/>
      <point x="77" y="700" type="line"/>
      <point x="77" y="0" type="line"/>
      <point x="53" y="0" type="line"/>
    </contour>
    <contour>
      <point x="273" y="0" type="line"/>
      <point x="247" y="0" type="line"/>
      <point x="163" y="353" type="line"/>
      <point x="183" y="373" type="line"/>
    </contour>
    <contour>
      <point x="220" y="376" type="line"/>
      <point x="197" y="353" type="line"/>
      <point x="196" y="353" type="line"/>
      <point x="196" y="700" type="line"/>
      <point x="220" y="700" type="line"/>
    </contour>
    <contour>
      <point x="77" y="353" type="line"/>
      <point x="77" y="377" type="line"/>
      <point x="196" y="377" type="line"/>
      <point x="196" y="353" type="line"/>
    </contour>
  </outline>
</glyph>
<glyph name="S.color4" format="2">
  <advance width="600"/>
  <unicode hex="0053"/>
  <outline>
    <contour>
      <point x="66" y="0" type="line"/>
      <point x="43" y="23" type="line"/>
      <point x="43" y="24" type="line"/>
      <point x="166" y="24" type="line"/>
      <point x="166" y="23" type="line"/>
      <point x="166" y="0" type="line"/>
    </contour>
  </outline>
</glyph>
<glyph name="S" format="2">
  <advance width="233"/>
  <unicode hex="0053"/>
  <anchor x="122" y="0" name="bottom"/>
  <anchor x="128" y="700" name="top"/>
  <outline>
    <contour>
      <point x="43" y="677" type="line"/>
      <point x="66" y="700" type="line"/>
      <point x="67" y="700" type="line"/>
      <point x="67" y="377" type="line"/>
      <point x="66" y="377" type="line"/>
      <point x="43" y="377" type="line"/>
    </contour>
    <contour>
      <point x="167" y="700" type="line"/>
      <point x="190" y="677" type="line"/>
      <point x="190" y="676" type="line"/>
      <point x="67" y="676" type="line"/>
      <point x="67" y="700" type="line"/>
    </contour>
    <contour>
      <point x="190" y="24" type="line"/>
      <point x="167" y="0" type="line"/>
      <point x="166" y="0" type="line"/>
      <point x="166" y="377" type="line"/>
      <point x="167" y="377" type="line"/>
      <point x="190" y="353" type="line"/>
    </contour>
    <contour>
      <point x="66" y="353" type="line"/>
      <point x="43" y="376" type="line"/>
      <point x="43" y="377" type="line"/>
      <point x="166" y="377" type="line"/>
      <point x="166" y="354" type="line"/>
      <point x="166" y="353" type="line"/>
    </contour>
    <contour>
      <point x="66" y="0" type="line"/>
      <point x="43" y="23" type="line"/>
      <point x="43" y="24" type="line"/>
      <point x="166" y="24" type="line"/>
      <point x="166" y="23" type="line"/>
      <point x="166" y="0" type="line"/>
    </contour>
  </outline>
</glyph>
<glyph name="T.color0" format="2">
  <advance width="600"/>
  <unicode hex="0054"/>
  <outline>
    <contour>
      <point x="144" y="676" type="line"/>
      <point x="167" y="700" type="line"/>
      <point x="168" y="700" type="line"/>
      <point x="168" y="0" type="line"/>
      <point x="145" y="0" type="line"/>
      <point x="144" y="0" type="line"/>
    </contour>
  </outline>
</glyph>
<glyph name="V.color0" format="2">
  <advance width="600"/>
  <unicode hex="0056"/>
  <outline>
    <contour>
      <point x="23" y="700" type="line"/>
      <point x="47" y="700" type="line"/>
      <point x="130" y="12" type="line"/>
      <point x="108" y="0" type="line"/>
      <point x="107" y="0" type="line"/>
    </contour>
  </outline>
</glyph>
<glyph name="V" format="2">
  <advance width="230"/>
  <unicode hex="0056"/>
  <outline>
    <contour>
      <point x="23" y="700" type="line"/>
      <point x="47" y="700" type="line"/>
      <point x="130" y="12" type="line"/>
      <point x="108" y="0" type="line"/>
      <point x="107" y="0" type="line"/>
    </contour>
    <contour>
      <point x="207" y="700" type="line"/>
      <point x="131" y="0" type="line"/>
      <point x="108" y="0" type="line"/>
      <point x="183" y="700" type="line"/>
    </contour>
  </outline>
</glyph>
<glyph name="X.color0" format="2">
  <advance width="600"/>
  <unicode hex="0058"/>
  <outline>
    <contour>
      <point x="28" y="700" type="line"/>
      <point x="52" y="700" type="line"/>
      <point x="135" y="356" type="line"/>
      <point x="113" y="350" type="line"/>
      <point x="112" y="350" type="line"/>
    </contour>
  </outline>
</glyph>
<glyph name="X.color3" format="2">
  <advance width="600"/>
  <unicode hex="0058"/>
  <outline>
    <contour>
      <point x="35" y="0" type="line"/>
      <point x="112" y="350" type="line"/>
      <point x="135" y="350" type="line"/>
      <point x="59" y="0" type="line"/>
    </contour>
  </outline>
</glyph>
<glyph name="X" format="2">
  <advance width="247"/>
  <unicode hex="0058"/>
  <outline>
    <contour>
      <point x="28" y="700" type="line"/>
      <point x="52" y="700" type="line"/>
      <point x="135" y="356" type="line"/>
      <point x="113" y="350" type="line"/>
      <point x="112" y="350" type="line"/>
    </contour>
    <contour>
      <point x="212" y="700" type="line"/>
      <point x="136" y="350" type="line"/>
      <point x="113" y="350" type="line"/>
      <point x="188" y="700" type="line"/>
    </contour>
    <contour>
      <point x="219" y="0" type="line"/>
      <point x="195" y="0" type="line"/>
      <point x="113" y="344" type="line"/>
      <point x="135" y="350" type="line"/>
      <point x="136" y="350" type="line"/>
    </contour>
    <contour>
      <point x="35" y="0" type="line"/>
      <point x="112" y="350" type="line"/>
      <point x="135" y="350" type="line"/>
      <point x="59" y="0" type="line"/>
    </contour>
  </outline>
</glyph>
<glyph name="Y.color1" format="2">
  <advance width="600"/>
  <unicode hex="0059"/>
  <outline>
    <contour>
      <point x="227" y="700" type="line"/>
      <point x="141" y="350" type="line"/>
      <point x="118" y="350" type="line"/>
      <point x="203" y="700" type="line"/>
    </contour>
  </outline>
</glyph>
<glyph name="Y.color2" format="2">
  <advance width="600"/>
  <unicode hex="0059"/>
  <outline>
    <contour>
      <point x="141" y="0" type="line"/>
      <point x="117" y="0" type="line"/>
      <point x="117" y="350" type="line"/>
      <point x="141" y="350" type="line"/>
    </contour>
  </outline>
</glyph>
<glyph name="b" format="2">
  <advance width="198"/>
  <unicode hex="0062"/>
  <outline>
    <contour>
      <point x="51" y="730" type="line"/>
      <point x="75" y="730" type="line"/>
      <point x="75" y="25" type="line"/>
      <point x="75" y="24" type="line"/>
      <point x="51" y="24" type="line"/>
    </contour>
    <contour>
      <point x="125" y="500" type="line"/>
      <point x="148" y="477" type="line"/>
      <point x="148" y="476" type="line"/>
      <point x="75" y="476" type="line"/>
      <point x="75" y="500" type="line"/>
    </contour>
    <contour>
      <point x="148" y="23" type="line"/>
      <point x="125" y="0" type="line"/>
      <point x="124" y="0" type="line"/>
      <point x="124" y="476" type="line"/>
      <point x="148" y="476" type="line"/>
    </contour>
    <contour>
      <point x="74" y="0" type="line"/>
      <point x="51" y="23" type="line"/>
      <point x="50" y="24" type="line"/>
      <point x="124" y="24" type="line"/>
      <point x="124" y="0" type="line"/>
    </contour>
  </outline>
</glyph>
<glyph name="f.color2" format="2">
  <advance width="600"/>
  <unicode hex="0066"/>
  <outline>
    <contour>
      <point x="134" y="700" type="line"/>
      <point x="157" y="677" type="line"/>
      <point x="157" y="676" type="line"/>
      <point x="74" y="676" type="line"/>
      <point x="74" y="700" type="line"/>
    </contour>
  </outline>
</glyph>
<glyph name="g.color4" format="2">
  <advance width="600"/>
  <unicode hex="0067"/>
  <outline>
    <contour>
      <point x="50" y="-200" type="line"/>
      <point x="50" y="-177" type="line"/>
      <point x="50" y="-176" type="line"/>
      <point x="123" y="-176" type="line"/>
      <point x="123" y="-200" type="line"/>
    </contour>
  </outline>
</glyph>
<glyph name="i" format="2">
  <advance width="124"/>
  <unicode hex="0069"/>
  <anchor x="62" y="0" name="bottom"/>
  <outline>
    <contour>
      <point x="50" y="480" type="line"/>
      <point x="73" y="503" type="line"/>
      <point x="74" y="503" type="line"/>
      <point x="74" y="0" type="line"/>
      <point x="50" y="0" type="line"/>
    </contour>
    <contour>
      <point x="74" y="565" type="line"/>
      <point x="51" y="542" type="line"/>
      <point x="50" y="542" type="line"/>
      <point x="50" y="615" type="line"/>
      <point x="74" y="615" type="line"/>
    </contour>
  </outline>
</glyph>
<glyph name="k.color2" format="2">
  <advance width="600"/>
  <unicode hex="006B"/>
  <outline>
    <contour>
      <point x="171" y="0" type="line"/>
      <point x="148" y="0" type="line"/>
      <point x="147" y="0" type="line"/>
      <point x="147" y="353" type="line"/>
      <point x="171" y="353" type="line"/>
    </contour>
  </outline>
</glyph>
<glyph name="k" format="2">
  <advance width="216"/>
  <unicode hex="006B"/>
  <anchor x="112" y="0" name="bottom"/>
  <outline>
    <contour>
      <point x="50" y="730" type="line"/>
      <point x="74" y="730" type="line"/>
      <point x="74" y="1" type="line"/>
      <point x="74" y="0" type="line"/>
      <point x="50" y="0" type="line"/>
    </contour>
    <contour>
      <point x="148" y="377" type="line"/>
      <point x="171" y="354" type="line"/>
      <point x="171" y="353" type="line"/>
      <point x="74" y="353" type="line"/>
      <point x="74" y="377" type="line"/>
    </contour>
    <contour>
      <point x="171" y="0" type="line"/>
      <point x="148" y="0" type="line"/>
      <point x="147" y="0" type="line"/>
      <point x="147" y="353" type="line"/>
      <point x="171" y="353" type="line"/>
    </contour>
    <contour>
      <point x="124" y="575" type="line"/>
      <point x="147" y="598" type="line"/>
      <point x="148" y="598" type="line"/>
      <point x="148" y="377" type="line"/>
      <point x="124" y="377" type="line"/>
    </contour>
  </outline>
</glyph>
<glyph name="m.color2" format="2">
  <advance width="600"/>
  <unicode hex="006D"/>
  <outline>
    <contour>
      <point x="197" y="500" type="line"/>
      <point x="220" y="477" type="line"/>
      <point x="220" y="476" type="line"/>
      <point x="147" y="476" type="line"/>
      <point x="147" y="500" type="line"/>
    </contour>
    <contour>
      <point x="124" y="500" type="line"/>
      <point x="147" y="477" type="line"/>
      <point x="147" y="476" type="line"/>
      <point x="74" y="476" type="line"/>
      <point x="74" y="500" type="line"/>
    </contour>
  </outline>
</glyph>
<glyph name="s.color0" format="2">
  <advance width="600"/>
  <unicode hex="0073"/>
  <outline>
    <contour>
      <point x="108" y="500" type="line"/>
      <point x="131" y="477" type="line"/>
      <point x="131" y="476" type="line"/>
      <point x="61" y="476" type="line"/>
      <point x="58" y="500" type="line"/>
    </contour>
  </outline>
</glyph>
<glyph name="t" format="2">
  <advance width="167"/>
  <unicode hex="0074"/>
  <anchor x="100" y="0" name="bottom"/>
  <anchor x="94" y="670" name="top"/>
  <outline>
    <contour>
      <point x="74" y="500" type="line"/>
      <point x="128" y="500" type="line"/>
      <point x="128" y="476" type="line"/>
      <point x="51" y="476" type="line"/>
    </contour>
    <contour>
      <point x="50" y="23" type="line"/>
      <point x="50" y="476" type="line"/>
      <point x="74" y="476" type="line"/>
      <point x="74" y="0" type="line"/>
      <point x="73" y="0" type="line"/>
    </contour>
    <contour>
      <point x="144" y="0" type="line"/>
      <point x="74" y="0" type="line"/>
      <point x="74" y="24" type="line"/>
      <point x="167" y="24" type="line"/>
      <point x="167" y="23" type="line"/>
    </contour>
    <contour>
      <point x="74" y="500" type="line"/>
      <point x="51" y="476" type="line"/>
      <point x="50" y="476" type="line"/>
      <point x="50" y="670" type="line"/>
      <point x="74" y="670" type="line"/>
    </contour>
  </outline>
</glyph>
<glyph name="z" format="2">
  <advance width="172"/>
  <unicode hex="007A"/>
  <anchor x="83" y="500" name="top"/>
  <outline>
    <contour>
      <point x="23" y="500" type="line"/>
      <point x="126" y="500" type="line"/>
      <point x="123" y="476" type="line"/>
      <point x="23" y="476" type="line"/>
      <point x="23" y="477" type="line"/>
    </contour>
    <contour>
      <point x="46" y="24" type="line"/>
      <point x="23" y="24" type="line"/>
      <point x="23" y="25" type="line"/>
      <point x="126" y="500" type="line"/>
      <point x="149" y="467" type="line"/>
    </contour>
    <contour>
      <point x="149" y="0" type="line"/>
      <point x="46" y="0" type="line"/>
      <point x="23" y="24" type="line"/>
      <point x="149" y="24" type="line"/>
      <point x="149" y="23" type="line"/>
    </contour>
  </outline>
</glyph>
<glyph name="bar" format="2">
  <advance width="130"/>
  <unicode hex="007C"/>
  <outline>
    <contour>
      <point x="53" y="800" type="line"/>
      <point x="76" y="800" type="line"/>
      <point x="77" y="800" type="line"/>
      <point x="77" y="-100" type="line"/>
      <point x="53" y="-100" type="line"/>
    </contour>
  </outline>
</glyph>
<glyph name="cent" format="2">
  <advance width="203"/>
  <unicode hex="00A2"/>
  <outline>
    <contour>
      <point x="112" y="-31" type="line"/>
      <point x="89" y="-54" type="line"/>
      <point x="88" y="-54" type="line"/>
      <point x="88" y="16" type="line"/>
      <point x="89" y="16" type="line"/>
      <point x="112" y="16" type="line"/>
    </contour>
    <contour>
      <point x="87" y="523" type="line"/>
      <point x="110" y="546" type="line"/>
      <point x="111" y="546" type="line"/>
      <point x="112" y="487" type="line"/>
      <point x="111" y="487" type="line"/>
      <point x="88" y="487" type="line"/>
    </contour>
    <component base="c"/>
  </outline>
</glyph>
<glyph name="yen" format="2">
  <advance width="290"/>
  <unicode hex="00A5"/>
  <outline>
    <contour>
      <point x="212" y="343" type="line"/>
      <point x="235" y="320" type="line"/>
      <point x="235" y="319" type="line"/>
      <point x="76" y="318" type="line"/>
      <point x="76" y="319" type="line"/>
      <point x="53" y="342" type="line"/>
    </contour>
    <contour>
      <point x="212" y="254" type="line"/>
      <point x="235" y="231" type="line"/>
      <point x="235" y="230" type="line"/>
      <point x="76" y="229" type="line"/>
      <point x="76" y="230" type="line"/>
      <point x="53" y="253" type="line"/>
    </contour>
    <component base="Y"/>
  </outline>
</glyph>
<glyph name="ordfeminine.color3" format="2">
  <advance width="600"/>
  <unicode hex="00AA"/>
  <outline>
    <contour>
      <point x="74" y="502" type="line"/>
      <point x="53" y="524" type="line"/>
      <point x="53" y="525" type="line"/>
      <point x="115" y="525" type="line"/>
      <point x="115" y="502" type="line"/>
    </contour>
  </outline>
</glyph>
<glyph name="guillemetleft.color2" format="2">
  <advance width="600"/>
  <unicode hex="00AB"/>
  <outline>
    <contour>
      <point x="186" y="453" type="line"/>
      <point x="215" y="453" type="line"/>
      <point x="215" y="452" type="line"/>
      <point x="72" y="277" type="line"/>
      <point x="43" y="277" type="line"/>
      <point x="43" y="278" type="line"/>
    </contour>
  </outline>
</glyph>
<glyph name="registered" format="2">
  <advance width="266"/>
  <unicode hex="00AE"/>
  <outline>
    <contour>
      <point x="181" y="450" type="line"/>
      <point x="155" y="450" type="line"/>
      <point x="132" y="548" type="line"/>
      <point x="156" y="558" type="line"/>
      <point x="181" y="451" type="line"/>
    </contour>
    <contour>
      <point x="86" y="637" type="line"/>
      <point x="109" y="660" type="line"/>
      <point x="110" y="660" type="line"/>
      <point x="110" y="450" type="line"/>
      <point x="86" y="450" type="line"/>
    </contour>
    <contour>
      <point x="150" y="660" type="line"/>
      <point x="173" y="637" type="line"/>
      <point x="173" y="636" type="line"/>
      <point x="110" y="636" type="line"/>
      <point x="110" y="660" type="line"/>
    </contour>
    <contour>
      <point x="173" y="561" type="line"/>
      <point x="150" y="538" type="line"/>
      <point x="149" y="538" type="line"/>
      <point x="149" y="636" type="line"/>
      <point x="173" y="636" type="line"/>
    </contour>
    <contour>
      <point x="110" y="538" type="line"/>
      <point x="110" y="561" type="line"/>
      <point x="110" y="562" type="line"/>
      <point x="149" y="562" type="line"/>
      <point x="149" y="538" type="line"/>
    </contour>
    <contour>
      <point x="233" y="678" type="line"/>
      <point x="233" y="433" type="line"/>
      <point x="211" y="433" type="line"/>
      <point x="211" y="700" type="line"/>
      <point x="212" y="700" type="line"/>
    </contour>
    <contour>
      <point x="55" y="700" type="line"/>
      <point x="211" y="700" type="line"/>
      <point x="211" y="677" type="line"/>
      <point x="33" y="677" type="line"/>
      <point x="33" y="678" type="line"/>
    </contour>
    <contour>
      <point x="33" y="432" type="line"/>
      <point x="33" y="677" type="line"/>
      <point x="56" y="677" type="line"/>
      <point x="56" y="410" type="line"/>
      <point x="55" y="410" type="line"/>
    </contour>
    <contour>
      <point x="212" y="410" type="line"/>
      <point x="56" y="410" type="line"/>
      <point x="56" y="433" type="line"/>
      <point x="233" y="433" type="line"/>
      <point x="233" y="432" type="line"/>
    </contour>
  </outline>
</glyph>
<glyph name="twosuperior" format="2">
  <advance width="232"/>
  <unicode hex="00B2"/>
  <outline>
    <contour>
      <point x="76" y="700" type="line"/>
      <point x="156" y="700" type="line"/>
      <point x="153" y="676" type="line"/>
      <point x="53" y="676" type="line"/>
      <point x="53" y="677" type="line"/>
    </contour>
    <contour>
      <point x="79" y="454" type="line"/>
      <point x="53" y="454" type="line"/>
      <point x="53" y="455" type="line"/>
      <point x="156" y="700" type="line"/>
      <point x="172" y="676" type="line"/>
    </contour>
    <contour>
      <point x="179" y="430" type="line"/>
      <point x="53" y="430" type="line"/>
      <point x="53" y="454" type="line"/>
      <point x="179" y="454" type="line"/>
      <point x="179" y="453" type="line"/>
    </contour>
  </outline>
</glyph>
<glyph name="onequarter.color1" format="2">
  <advance width="600"/>
  <unicode hex="00BC"/>
  <outline>
    <contour>
      <point x="103" y="676" type="line"/>
      <point x="62" y="676" type="line"/>
      <point x="62" y="700" type="line"/>
      <point x="126" y="700" type="line"/>
    </contour>
  </outline>
</glyph>
<glyph name="onequarter.color6" format="2">
  <advance width="600"/>
  <unicode hex="00BC"/>
  <outline>
    <contour>
      <point x="346" y="270" type="line"/>
      <point x="374" y="270" type="line"/>
      <point x="374" y="269" type="line"/>
      <point x="303" y="104" type="line"/>
      <point x="285" y="128" type="line"/>
    </contour>
  </outline>
</glyph>
<glyph name="onehalf.color4" format="2">
  <advance width="600"/>
  <unicode hex="00BD"/>
  <outline>
    <contour>
      <point x="377" y="700" type="line"/>
      <point x="377" y="699" type="line"/>
      <point x="132" y="0" type="line"/>
      <point x="109" y="0" type="line"/>
      <point x="109" y="1" type="line"/>
      <point x="354" y="700" type="line"/>
    </contour>
  </outline>
</glyph>
<glyph name="onehalf" format="2">
  <advance width="464"/>
  <unicode hex="00BD"/>
  <outline>
    <contour>
      <point x="103" y="676" type="line"/>
      <point x="126" y="700" type="line"/>
      <point x="127" y="700" type="line"/>
      <point x="127" y="454" type="line"/>
      <point x="104" y="430" type="line"/>
      <point x="103" y="430" type="line"/>
    </contour>
    <contour>
      <point x="103" y="676" type="line"/>
      <point x="62" y="676" type="line"/>
      <point x="62" y="700" type="line"/>
      <point x="126" y="700" type="line"/>
    </contour>
    <contour>
      <point x="127" y="454" type="line"/>
      <point x="176" y="454" type="line"/>
      <point x="176" y="430" type="line"/>
      <point x="104" y="430" type="line"/>
    </contour>
    <contour>
      <point x="53" y="454" type="line"/>
      <point x="103" y="454" type="line"/>
      <point x="103" y="430" type="line"/>
      <point x="53" y="430" type="line"/>
    </contour>
    <contour>
      <point x="377" y="700" type="line"/>
      <point x="377" y="699" type="line"/>
      <point x="132" y="0" type="line"/>
      <point x="109" y="0" type="line"/>
      <point x="109" y="1" type="line"/>
      <point x="354" y="700" type="line"/>
    </contour>
    <contour>
      <point x="308" y="270" type="line"/>
      <point x="388" y="270" type="line"/>
      <point x="385" y="246" type="line"/>
      <point x="285" y="246" type="line"/>
      <point x="285" y="247" type="line"/>
    </contour>
    <contour>
      <point x="311" y="24" type="line"/>
      <point x="285" y="24" type="line"/>
      <point x="285" y="25" type="line"/>
      <point x="388" y="270" type="line"/>
      <point x="404" y="246" type="line"/>
    </contour>
    <contour>
      <point x="411" y="0" type="line"/>
      <point x="285" y="0" type="line"/>
      <point x="285" y="24" type="line"/>
      <point x="411" y="24" type="line"/>
      <point x="411" y="23" type="line"/>
    </contour>
  </outline>
</glyph>
<glyph name="Acircumflex.color4" format="2">
  <advance width="600"/>
  <unicode hex="00C2"/>
  <outline>
    <contour>
      <point x="192" y="760" type="line"/>
      <point x="168" y="760" type="line"/>
      <point x="124" y="850" type="line"/>
      <point x="147" y="850" type="line"/>
      <point x="148" y="850" type="line"/>
      <point x="192" y="761" type="line"/>
    </contour>
  </outline>
</glyph>
<glyph name="Aring.color6" format="2">
  <advance width="600"/>
  <unicode hex="00C5"/>
  <outline>
    <contour>
      <point x="172" y="771" type="line"/>
      <point x="151" y="753" type="line"/>
      <point x="150" y="753" type="line"/>
      <point x="150" y="835" type="line"/>
      <point x="172" y="835" type="line"/>
    </contour>
  </outline>
</glyph>
<glyph name="Iacute.color5" format="2">
  <advance width="600"/>
  <unicode hex="00CD"/>
  <outline>
    <contour>
      <point x="97" y="735" type="line"/>
      <point x="117" y="855" type="line"/>
      <point x="148" y="855" type="line"/>
      <point x="148" y="854" type="line"/>
      <point x="121" y="735" type="line"/>
    </contour>
  </outline>
</glyph>
<glyph name="multiply.color2" format="2">
  <advance width="600"/>
  <unicode hex="00D7"/>
  <outline>
    <contour>
      <point x="186" y="444" type="line"/>
      <point x="213" y="444" type="line"/>
      <point x="213" y="443" type="line"/>
      <point x="142" y="342" type="line"/>
      <point x="114" y="342" type="line"/>
      <point x="114" y="343" type="line"/>
    </contour>
  </outline>
</glyph>
<glyph name="Ucircumflex.color3" format="2">
  <advance width="600"/>
  <unicode hex="00DB"/>
  <outline>
    <contour>
      <point x="197" y="761" type="line"/>
      <point x="173" y="761" type="line"/>
      <point x="129" y="851" type="line"/>
      <point x="152" y="851" type="line"/>
      <point x="153" y="851" type="line"/>
      <point x="197" y="762" type="line"/>
    </contour>
  </outline>
</glyph>
<glyph name="germandbls.color1" format="2">
  <advance width="600"/>
  <unicode hex="00DF"/>
  <outline>
    <contour>
      <point x="146" y="397" type="line"/>
      <point x="122" y="397" type="line"/>
      <point x="122" y="800" type="line"/>
      <point x="123" y="800" type="line"/>
      <point x="146" y="777" type="line"/>
    </contour>
  </outline>
</glyph>
<glyph name="acircumflex.color5" format="2">
  <advance width="600"/>
  <unicode hex="00E2"/>
  <outline>
    <contour>
      <point x="46" y="590" type="line"/>
      <point x="92" y="680" type="line"/>
      <point x="115" y="680" type="line"/>
      <point x="70" y="590" type="line"/>
    </contour>
  </outline>
</glyph>
<glyph name="ae.color1" format="2">
  <advance width="600"/>
  <unicode hex="00E6"/>
  <outline>
    <contour>
      <point x="198" y="500" type="line"/>
      <point x="221" y="477" type="line"/>
      <point x="221" y="476" type="line"/>
      <point x="148" y="476" type="line"/>
      <point x="148" y="500" type="line"/>
    </contour>
  </outline>
</glyph>
<glyph name="ecircumflex.color6" format="2">
  <advance width="600"/>
  <unicode hex="00EA"/>
  <outline>
    <contour>
      <point x="44" y="590" type="line"/>
      <point x="90" y="680" type="line"/>
      <point x="113" y="680" type="line"/>
      <point x="68" y="590" type="line"/>
    </contour>
  </outline>
</glyph>
<glyph name="eth" format="2">
  <advance width="203"/>
  <unicode hex="00F0"/>
  <anchor x="103" y="500" name="top"/>
  <outline>
    <contour>
      <point x="172" y="623" type="line"/>
      <point x="65" y="594" type="line"/>
      <point x="59" y="617" type="line"/>
      <point x="166" y="646" type="line"/>
      <point x="166" y="645" type="line"/>
    </contour>
    <contour>
      <point x="53" y="477" type="line"/>
      <point x="76" y="500" type="line"/>
      <point x="77" y="500" type="line"/>
      <point x="77" y="24" type="line"/>
      <point x="53" y="24" type="line"/>
    </contour>
    <contour>
      <point x="126" y="500" type="line"/>
      <point x="76" y="730" type="line"/>
      <point x="100" y="730" type="line"/>
      <point x="150" y="477" type="line"/>
      <point x="149" y="477" type="line"/>
    </contour>
    <contour>
      <point x="127" y="500" type="line"/>
      <point x="150" y="477" type="line"/>
      <point x="150" y="476" type="line"/>
      <point x="77" y="476" type="line"/>
      <point x="77" y="500" type="line"/>
    </contour>
    <contour>
      <point x="150" y="23" type="line"/>
      <point x="127" y="0" type="line"/>
      <point x="126" y="0" type="line"/>
      <point x="126" y="476" type="line"/>
      <point x="150" y="476" type="line"/>
    </contour>
    <contour>
      <point x="76" y="0" type="line"/>
      <point x="53" y="23" type="line"/>
      <point x="53" y="24" type="line"/>
      <point x="126" y="24" type="line"/>
      <point x="126" y="0" type="line"/>
    </contour>
  </outline>
</glyph>
<glyph name="oacute" format="2">
  <advance width="198"/>
  <unicode hex="00F3"/>
  <anchor x="99" y="0" name="bottom"/>
  <anchor x="124" y="500" name="horn"/>
  <anchor x="99" y="500" name="top"/>
  <outline>
    <contour>
      <point x="50" y="477" type="line"/>
      <point x="73" y="500" type="line"/>
      <point x="74" y="500" type="line"/>
      <point x="74" y="24" type="line"/>
      <point x="50" y="24" type="line"/>
    </contour>
    <contour>
      <point x="125" y="500" type="line"/>
      <point x="148" y="477" type="line"/>
      <point x="148" y="476" type="line"/>
      <point x="74" y="476" type="line"/>
      <point x="74" y="500" type="line"/>
    </contour>
    <contour>
      <point x="148" y="23" type="line"/>
      <point x="125" y="0" type="line"/>
      <point x="124" y="0" type="line"/>
      <point x="124" y="476" type="line"/>
      <point x="148" y="476" type="line"/>
    </contour>
    <contour>
      <point x="73" y="0" type="line"/>
      <point x="50" y="23" type="line"/>
      <point x="50" y="24" type="line"/>
      <point x="124" y="24" type="line"/>
      <point x="124" y="0" type="line"/>
    </contour>
    <contour>
      <point x="83" y="570" type="line"/>
      <point x="108" y="700" type="line"/>
      <point x="139" y="700" type="line"/>
      <point x="139" y="699" type="line"/>
      <point x="107" y="570" type="line"/>
    </contour>
  </outline>
</glyph>
<glyph name="uacute.color3" format="2">
  <advance width="600"/>
  <unicode hex="00FA"/>
  <outline>
    <contour>
      <point x="84" y="570" type="line"/>
      <point x="109" y="700" type="line"/>
      <point x="140" y="700" type="line"/>
      <point x="140" y="699" type="line"/>
      <point x="108" y="570" type="line"/>
    </contour>
  </outline>
</glyph>
<glyph name="ydieresis.color5" format="2">
  <advance width="600"/>
  <unicode hex="00FF"/>
  <outline>
    <contour>
      <point x="143" y="601" type="line"/>
      <point x="112" y="601" type="line"/>
      <point x="112" y="635" type="line"/>
      <point x="143" y="635" type="line"/>
    </contour>
  </outline>
</glyph>
<glyph name="ydieresis" format="2">
  <advance width="197"/>
  <unicode hex="00FF"/>
  <anchor x="99" y="-200" name="bottom"/>
  <anchor x="100" y="500" name="top"/>
  <outline>
    <contour>
      <point x="73" y="0" type="line"/>
      <point x="50" y="23" type="line"/>
      <point x="50" y="24" type="line"/>
      <point x="123" y="24" type="line"/>
      <point x="123" y="0" type="line"/>
    </contour>
    <contour>
      <point x="146" y="-177" type="line"/>
      <point x="124" y="-200" type="line"/>
      <point x="123" y="-200" type="line"/>
      <point x="123" y="500" type="line"/>
      <point x="147" y="500" type="line"/>
    </contour>
    <contour>
      <point x="50" y="477" type="line"/>
      <point x="73" y="503" type="line"/>
      <point x="74" y="503" type="line"/>
      <point x="74" y="24" type="line"/>
      <point x="50" y="24" type="line"/>
    </contour>
    <contour>
      <point x="50" y="-200" type="line"/>
      <point x="50" y="-177" type="line"/>
      <point x="50" y="-176" type="line"/>
      <point x="123" y="-176" type="line"/>
      <point x="123" y="-200" type="line"/>
    </contour>
    <contour>
      <point x="88" y="601" type="line"/>
      <point x="57" y="601" type="line"/>
      <point x="57" y="635" type="line"/>
      <point x="88" y="635" type="line"/>
    </contour>
    <contour>
      <point x="143" y="601" type="line"/>
      <point x="112" y="601" type="line"/>
      <point x="112" y="635" type="line"/>
      <point x="143" y="635" type="line"/>
    </contour>
  </outline>
</glyph>
<glyph name="Aogonek.color4" format="2">
  <advance width="600"/>
  <unicode hex="0104"/>
  <outline>
    <contour>
      <point x="148" y="-80" type="line"/>
      <point x="123" y="-80" type="line"/>
      <point x="123" y="-61" type="line"/>
      <point x="166" y="-61" type="line"/>
      <point x="166" y="-62" type="line"/>
    </contour>
  </outline>
</glyph>
<glyph name="Aogonek" format="2">
  <advance width="273"/>
  <unicode hex="0104"/>
  <anchor x="135" y="0" name="bottom"/>
  <anchor x="138" y="700" name="top"/>
  <outline>
    <contour>
      <point x="53" y="677" type="line"/>
      <point x="76" y="700" type="line"/>
      <point x="77" y="700" type="line"/>
      <point x="77" y="0" type="line"/>
      <point x="53" y="0" type="line"/>
    </contour>
    <contour>
      <point x="197" y="700" type="line"/>
      <point x="220" y="677" type="line"/>
      <point x="220" y="676" type="line"/>
      <point x="77" y="676" type="line"/>
      <point x="77" y="700" type="line"/>
    </contour>
    <contour>
      <point x="220" y="0" type="line"/>
      <point x="197" y="0" type="line"/>
      <point x="196" y="0" type="line"/>
      <point x="196" y="676" type="line"/>
      <point x="220" y="676" type="line"/>
    </contour>
    <contour>
      <point x="196" y="353" type="line"/>
      <point x="77" y="353" type="line"/>
      <point x="77" y="376" type="line"/>
      <point x="77" y="377" type="line"/>
      <point x="196" y="377" type="line"/>
    </contour>
    <contour>
      <point x="148" y="-80" type="line"/>
      <point x="123" y="-80" type="line"/>
      <point x="123" y="-61" type="line"/>
      <point x="166" y="-61" type="line"/>
      <point x="166" y="-62" type="line"/>
    </contour>
    <contour>
      <point x="102" y="-34" type="line"/>
      <point x="102" y="-33" type="line"/>
      <point x="123" y="0" type="line"/>
      <point x="147" y="0" type="line"/>
      <point x="147" y="-1" type="line"/>
      <point x="123" y="-34" type="line"/>
    </contour>
    <contour>
      <point x="102" y="-61" type="line"/>
      <point x="102" y="-34" type="line"/>
      <point x="123" y="-34" type="line"/>
      <point x="123" y="-79" type="line"/>
      <point x="122" y="-79" type="line"/>
    </contour>
  </outline>
</glyph>
<glyph name="aogonek.color4" format="2">
  <advance width="600"/>
  <unicode hex="0105"/>
  <outline>
    <contour>
      <point x="115" y="-80" type="line"/>
      <point x="90" y="-80" type="line"/>
      <point x="90" y="-61" type="line"/>
      <point x="133" y="-61" type="line"/>
      <point x="133" y="-62" type="line"/>
    </contour>
  </outline>
</glyph>
<glyph name="aogonek" format="2">
  <advance width="197"/>
  <unicode hex="0105"/>
  <anchor x="102" y="0" name="bottom"/>
  <anchor x="102" y="500" name="top"/>
  <outline>
    <contour>
      <point x="50" y="477" type="line"/>
      <point x="73" y="500" type="line"/>
      <point x="74" y="500" type="line"/>
      <point x="74" y="24" type="line"/>
      <point x="50" y="24" type="line"/>
    </contour>
    <contour>
      <point x="124" y="500" type="line"/>
      <point x="147" y="477" type="line"/>
      <point x="147" y="476" type="line"/>
      <point x="74" y="476" type="line"/>
      <point x="74" y="500" type="line"/>
    </contour>
    <contour>
      <point x="147" y="0" type="line"/>
      <point x="124" y="0" type="line"/>
      <point x="123" y="0" type="line"/>
      <point x="123" y="476" type="line"/>
      <point x="147" y="476" type="line"/>
    </contour>
    <contour>
      <point x="73" y="0" type="line"/>
      <point x="50" y="23" type="line"/>
      <point x="50" y="24" type="line"/>
      <point x="123" y="24" type="line"/>
      <point x="123" y="0" type="line"/>
    </contour>
    <contour>
      <point x="115" y="-80" type="line"/>
      <point x="90" y="-80" type="line"/>
      <point x="90" y="-61" type="line"/>
      <point x="133" y="-61" type="line"/>
      <point x="133" y="-62" type="line"/>
    </contour>
    <contour>
      <point x="69" y="-34" type="line"/>
      <point x="69" y="-33" type="line"/>
      <point x="90" y="0" type="line"/>
      <point x="114" y="0" type="line"/>
      <point x="114" y="-1" type="line"/>
      <point x="90" y="-34" type="line"/>
    </contour>
    <contour>
      <point x="69" y="-61" type="line"/>
      <point x="69" y="-34" type="line"/>
      <point x="90" y="-34" type="line"/>
      <point x="90" y="-79" type="line"/>
      <point x="89" y="-79" type="line"/>
    </contour>
  </outline>
</glyph>
<glyph name="cdotaccent" format="2">
  <advance width="167"/>
  <unicode hex="010B"/>
  <anchor x="102" y="0" name="bottom"/>
  <anchor x="100" y="500" name="top"/>
  <outline>
    <contour>
      <point x="50" y="477" type="line"/>
      <point x="73" y="500" type="line"/>
      <point x="74" y="500" type="line"/>
      <point x="74" y="24" type="line"/>
      <point x="50" y="24" type="line"/>
    </contour>
    <contour>
      <point x="124" y="500" type="line"/>
      <point x="147" y="477" type="line"/>
      <point x="147" y="476" type="line"/>
      <point x="74" y="476" type="line"/>
      <point x="74" y="500" type="line"/>
    </contour>
    <contour>
      <point x="73" y="0" type="line"/>
      <point x="50" y="23" type="line"/>
      <point x="50" y="24" type="line"/>
      <point x="136" y="24" type="line"/>
      <point x="136" y="23" type="line"/>
      <point x="113" y="0" type="line"/>
    </contour>
    <contour>
      <point x="115" y="601" type="line"/>
      <point x="85" y="601" type="line"/>
      <point x="85" y="635" type="line"/>
      <point x="115" y="635" type="line"/>
    </contour>
  </outline>
</glyph>
<glyph name="dcaron.color3" format="2">
  <advance width="600"/>
  <unicode hex="010F"/>
  <outline>
    <contour>
      <point x="73" y="0" type="line"/>
      <point x="50" y="23" type="line"/>
      <point x="50" y="24" type="line"/>
      <point x="123" y="24" type="line"/>
      <point x="123" y="0" type="line"/>
    </contour>
  </outline>
</glyph>
<glyph name="dcaron.color5" format="2">
  <advance width="600"/>
  <unicode hex="010F"/>
  <outline>
    <contour>
      <point x="179" y="601" type="line"/>
      <point x="177" y="730" type="line"/>
      <point x="177" y="731" type="line"/>
      <point x="205" y="731" type="line"/>
      <point x="200" y="601" type="line"/>
    </contour>
  </outline>
</glyph>
<glyph name="dcaron" format="2">
  <advance width="225"/>
  <unicode hex="010F"/>
  <anchor x="103" y="578" name="stroke"/>
  <anchor x="147" y="730" name="top"/>
  <outline>
    <contour>
      <point x="50" y="477" type="line"/>
      <point x="73" y="500" type="line"/>
      <point x="74" y="500" type="line"/>
      <point x="74" y="24" type="line"/>
      <point x="50" y="24" type="line"/>
    </contour>
    <contour>
      <point x="124" y="500" type="line"/>
      <point x="147" y="477" type="line"/>
      <point x="147" y="476" type="line"/>
      <point x="74" y="476" type="line"/>
      <point x="74" y="500" type="line"/>
    </contour>
    <contour>
      <point x="147" y="23" type="line"/>
      <point x="124" y="0" type="line"/>
      <point x="123" y="0" type="line"/>
      <point x="123" y="476" type="line"/>
      <point x="147" y="476" type="line"/>
    </contour>
    <contour>
      <point x="73" y="0" type="line"/>
      <point x="50" y="23" type="line"/>
      <point x="50" y="24" type="line"/>
      <point x="123" y="24" type="line"/>
      <point x="123" y="0" type="line"/>
    </contour>
    <contour>
      <point x="123" y="500" type="line"/>
      <point x="123" y="730" type="line"/>
      <point x="147" y="730" type="line"/>
      <point x="147" y="477" type="line"/>
      <point x="146" y="477" type="line"/>
    </contour>
    <contour>
      <point x="179" y="601" type="line"/>
      <point x="177" y="730" type="line"/>
      <point x="177" y="731" type="line"/>
      <point x="205" y="731" type="line"/>
      <point x="200" y="601" type="line"/>
    </contour>
  </outline>
</glyph>
<glyph name="Dcroat.color0" format="2">
  <advance width="600"/>
  <unicode hex="0110"/>
  <outline>
    <contour>
      <point x="146" y="353" type="line"/>
      <point x="-15" y="353" type="line"/>
      <point x="-15" y="377" type="line"/>
      <point x="146" y="377" type="line"/>
      <point x="146" y="376" type="line"/>
    </contour>
  </outline>
</glyph>
<glyph name="ebreve.color5" format="2">
  <advance width="600"/>
  <unicode hex="0115"/>
  <outline>
    <contour>
      <point x="86" y="622" type="line"/>
      <point x="60" y="622" type="line"/>
      <point x="31" y="671" type="line"/>
      <point x="31" y="672" type="line"/>
      <point x="57" y="672" type="line"/>
    </contour>
  </outline>
</glyph>
<glyph name="eogonek.color6" format="2">
  <advance width="600"/>
  <unicode hex="0119"/>
  <outline>
    <contour>
      <point x="68" y="-34" type="line"/>
      <point x="68" y="-33" type="line"/>
      <point x="89" y="0" type="line"/>
      <point x="113" y="0" type="line"/>
      <point x="113" y="-1" type="line"/>
      <point x="89" y="-34" type="line"/>
    </contour>
  </outline>
</glyph>
<glyph name="eogonek.color7" format="2">
  <advance width="600"/>
  <unicode hex="0119"/>
  <outline>
    <contour>
      <point x="68" y="-61" type="line"/>
      <point x="68" y="-34" type="line"/>
      <point x="89" y="-34" type="line"/>
      <point x="89" y="-79" type="line"/>
      <point x="88" y="-79" type="line"/>
    </contour>
  </outline>
</glyph>
<glyph name="gbreve.color0" format="2">
  <advance width="600"/>
  <unicode hex="011F"/>
  <outline>
    <contour>
      <point x="146" y="-177" type="line"/>
      <point x="124" y="-200" type="line"/>
      <point x="123" y="-200" type="line"/>
      <point x="123" y="476" type="line"/>
      <point x="147" y="476" type="line"/>
    </contour>
  </outline>
</glyph>
<glyph name="gbreve.color5" format="2">
  <advance width="600"/>
  <unicode hex="011F"/>
  <outline>
    <contour>
      <point x="96" y="622" type="line"/>
      <point x="70" y="622" type="line"/>
      <point x="41" y="671" type="line"/>
      <point x="41" y="672" type="line"/>
      <point x="67" y="672" type="line"/>
    </contour>
  </outline>
</glyph>
<glyph name="gdotaccent.color5" format="2">
  <advance width="600"/>
  <unicode hex="0121"/>
  <outline>
    <contour>
      <point x="125" y="601" type="line"/>
      <point x="95" y="601" type="line"/>
      <point x="95" y="635" type="line"/>
      <point x="125" y="635" type="line"/>
    </contour>
  </outline>
</glyph>
<glyph name="gcommaaccent.color3" format="2">
  <advance width="600"/>
  <unicode hex="0123"/>
  <outline>
    <contour>
      <point x="164" y="476" type="line"/>
      <point x="74" y="476" type="line"/>
      <point x="74" y="500" type="line"/>
      <point x="187" y="500" type="line"/>
      <point x="187" y="499" type="line"/>
    </contour>
  </outline>
</glyph>
<glyph name="hcircumflex.color4" format="2">
  <advance width="600"/>
  <unicode hex="0125"/>
  <outline>
    <contour>
      <point x="80" y="560" type="line"/>
      <point x="80" y="561" type="line"/>
      <point x="126" y="650" type="line"/>
      <point x="149" y="650" type="line"/>
      <point x="104" y="560" type="line"/>
    </contour>
  </outline>
</glyph>
<glyph name="hcircumflex" format="2">
  <advance width="197"/>
  <unicode hex="0125"/>
  <anchor x="88" y="573" name="stroke"/>
  <anchor x="140" y="500" name="top"/>
  <outline>
    <contour>
      <point x="50" y="730" type="line"/>
      <point x="74" y="730" type="line"/>
      <point x="74" y="1" type="line"/>
      <point x="74" y="0" type="line"/>
      <point x="50" y="0" type="line"/>
    </contour>
    <contour>
      <point x="124" y="500" type="line"/>
      <point x="147" y="477" type="line"/>
      <point x="147" y="476" type="line"/>
      <point x="74" y="476" type="line"/>
      <point x="74" y="500" type="line"/>
    </contour>
    <contour>
      <point x="147" y="20" type="line"/>
      <point x="124" y="-3" type="line"/>
      <point x="123" y="-3" type="line"/>
      <point x="123" y="476" type="line"/>
      <point x="147" y="476" type="line"/>
    </contour>
    <contour>
      <point x="194" y="560" type="line"/>
      <point x="170" y="560" type="line"/>
      <point x="126" y="650" type="line"/>
      <point x="149" y="650" type="line"/>
      <point x="150" y="650" type="line"/>
      <point x="194" y="561" type="line"/>
    </contour>
    <contour>
      <point x="80" y="560" type="line"/>
      <point x="80" y="561" type="line"/>
      <point x="126" y="650" type="line"/>
      <point x="149" y="650" type="line"/>
      <point x="104" y="560" type="line"/>
    </contour>
  </outline>
</glyph>
<glyph name="hbar.color0" format="2">
  <advance width="600"/>
  <unicode hex="0127"/>
  <outline>
    <contour>
      <point x="172" y="561" type="line"/>
      <point x="11" y="561" type="line"/>
      <point x="11" y="585" type="line"/>
      <point x="172" y="585" type="line"/>
      <point x="172" y="584" type="line"/>
    </contour>
  </outline>
</glyph>
<glyph name="hbar.color2" format="2">
  <advance width="600"/>
  <unicode hex="0127"/>
  <outline>
    <contour>
      <point x="124" y="500" type="line"/>
      <point x="147" y="477" type="line"/>
      <point x="147" y="476" type="line"/>
      <point x="74" y="476" type="line"/>
      <point x="74" y="500" type="line"/>
    </contour>
  </outline>
</glyph>
<glyph name="itilde.color3" format="2">
  <advance width="600"/>
  <unicode hex="0129"/>
  <outline>
    <contour>
      <point x="23" y="629" type="line"/>
      <point x="23" y="630" type="line"/>
      <point x="43" y="639" type="line"/>
      <point x="44" y="639" type="line"/>
      <point x="103" y="593" type="line"/>
      <point x="103" y="592" type="line"/>
      <point x="83" y="583" type="line"/>
      <point x="82" y="583" type="line"/>
    </contour>
  </outline>
</glyph>
<glyph name="imacron" format="2">
  <advance width="130"/>
  <unicode hex="012B"/>
  <anchor x="65" y="0" name="bottom"/>
  <anchor x="63" y="500" name="top"/>
  <outline>
    <contour>
      <point x="53" y="480" type="line"/>
      <point x="76" y="503" type="line"/>
      <point x="77" y="503" type="line"/>
      <point x="77" y="0" type="line"/>
      <point x="53" y="0" type="line"/>
    </contour>
    <contour>
      <point x="118" y="611" type="line"/>
      <point x="8" y="611" type="line"/>
      <point x="8" y="635" type="line"/>
      <point x="118" y="635" type="line"/>
    </contour>
  </outline>
</glyph>
<glyph name="ibreve.color0" format="2">
  <advance width="600"/>
  <unicode hex="012D"/>
  <outline>
    <contour>
      <point x="59" y="480" type="line"/>
      <point x="82" y="503" type="line"/>
      <point x="83" y="503" type="line"/>
      <point x="83" y="0" type="line"/>
      <point x="59" y="0" type="line"/>
    </contour>
  </outline>
</glyph>
<glyph name="Iogonek.color3" format="2">
  <advance width="600"/>
  <unicode hex="012E"/>
  <outline>
    <contour>
      <point x="125" y="24" type="line"/>
      <point x="206" y="24" type="line"/>
      <point x="206" y="0" type="line"/>
      <point x="102" y="0" type="line"/>
    </contour>
  </outline>
</glyph>
<glyph name="Iogonek.color6" format="2">
  <advance width="600"/>
  <unicode hex="012E"/>
  <outline>
    <contour>
      <point x="79" y="-34" type="line"/>
      <point x="79" y="-33" type="line"/>
      <point x="100" y="0" type="line"/>
      <point x="124" y="0" type="line"/>
      <point x="124" y="-1" type="line"/>
      <point x="100" y="-34" type="line"/>
    </contour>
  </outline>
</glyph>
<glyph name="iogonek.color3" format="2">
  <advance width="600"/>
  <unicode hex="012F"/>
  <outline>
    <contour>
      <point x="32" y="-34" type="line"/>
      <point x="32" y="-33" type="line"/>
      <point x="53" y="0" type="line"/>
      <point x="77" y="0" type="line"/>
      <point x="77" y="-1" type="line"/>
      <point x="53" y="-34" type="line"/>
    </contour>
  </outline>
</glyph>
<glyph name="iogonek" format="2">
  <advance width="130"/>
  <unicode hex="012F"/>
  <anchor x="65" y="0" name="bottom"/>
  <anchor x="63" y="500" name="top"/>
  <outline>
    <contour>
      <point x="53" y="480" type="line"/>
      <point x="76" y="503" type="line"/>
      <point x="77" y="503" type="line"/>
      <point x="77" y="0" type="line"/>
      <point x="53" y="0" type="line"/>
    </contour>
    <contour>
      <point x="78" y="601" type="line"/>
      <point x="48" y="601" type="line"/>
      <point x="48" y="635" type="line"/>
      <point x="78" y="635" type="line"/>
    </contour>
    <contour>
      <point x="78" y="-80" type="line"/>
      <point x="53" y="-80" type="line"/>
      <point x="53" y="-61" type="line"/>
      <point x="96" y="-61" type="line"/>
      <point x="96" y="-62" type="line"/>
    </contour>
    <contour>
      <point x="32" y="-34" type="line"/>
      <point x="32" y="-33" type="line"/>
      <point x="53" y="0" type="line"/>
      <point x="77" y="0" type="line"/>
      <point x="77" y="-1" type="line"/>
      <point x="53" y="-34" type="line"/>
    </contour>
    <contour>
      <point x="32" y="-61" type="line"/>
      <point x="32" y="-34" type="line"/>
      <point x="53" y="-34" type="line"/>
      <point x="53" y="-79" type="line"/>
      <point x="52" y="-79" type="line"/>
    </contour>
  </outline>
</glyph>
<glyph name="Jcircumflex.color3" format="2">
  <advance width="600"/>
  <unicode hex="0134"/>
  <outline>
    <contour>
      <point x="20" y="24" type="line"/>
      <point x="164" y="24" type="line"/>
      <point x="164" y="23" type="line"/>
      <point x="140" y="0" type="line"/>
      <point x="20" y="0" type="line"/>
    </contour>
  </outline>
</glyph>
<glyph name="Jcircumflex.color5" format="2">
  <advance width="600"/>
  <unicode hex="0134"/>
  <outline>
    <contour>
      <point x="88" y="760" type="line"/>
      <point x="88" y="761" type="line"/>
      <point x="134" y="850" type="line"/>
      <point x="157" y="850" type="line"/>
      <point x="112" y="760" type="line"/>
    </contour>
  </outline>
</glyph>
<glyph name="jcircumflex" format="2">
  <advance width="130"/>
  <unicode hex="0135"/>
  <anchor x="70" y="602" name="top"/>
  <outline>
    <contour>
      <point x="53" y="480" type="line"/>
      <point x="76" y="503" type="line"/>
      <point x="77" y="503" type="line"/>
      <point x="77" y="-177" type="line"/>
      <point x="54" y="-200" type="line"/>
      <point x="53" y="-200" type="line"/>
    </contour>
    <contour>
      <point x="53" y="-200" type="line"/>
      <point x="-9" y="-200" type="line"/>
      <point x="-9" y="-176" type="line"/>
      <point x="53" y="-176" type="line"/>
      <point x="53" y="-177" type="line"/>
    </contour>
    <contour>
      <point x="121" y="590" type="line"/>
      <point x="97" y="590" type="line"/>
      <point x="53" y="680" type="line"/>
      <point x="76" y="680" type="line"/>
      <point x="77" y="680" type="line"/>
    </contour>
    <contour>
      <point x="7" y="590" type="line"/>
      <point x="53" y="680" type="line"/>
      <point x="76" y="680" type="line"/>
      <point x="31" y="590" type="line"/>
    </contour>
  </outline>
</glyph>
<glyph name="Kcommaaccent.color1" format="2">
  <advance width="600"/>
  <unicode hex="0136"/>
  <outline>
    <contour>
      <point x="273" y="0" type="line"/>
      <point x="247" y="0" type="line"/>
      <point x="163" y="353" type="line"/>
      <point x="183" y="373" type="line"/>
    </contour>
  </outline>
</glyph>
<glyph name="Lacute.color2" format="2">
  <advance width="600"/>
  <unicode hex="0139"/>
  <outline>
    <contour>
      <point x="55" y="735" type="line"/>
      <point x="75" y="855" type="line"/>
      <point x="106" y="855" type="line"/>
      <point x="106" y="854" type="line"/>
      <point x="79" y="735" type="line"/>
    </contour>
  </outline>
</glyph>
<glyph name="lcaron.color0" format="2">
  <advance width="600"/>
  <unicode hex="013E"/>
  <outline>
    <contour>
      <point x="50" y="730" type="line"/>
      <point x="74" y="730" type="line"/>
      <point x="74" y="0" type="line"/>
      <point x="73" y="0" type="line"/>
      <point x="50" y="23" type="line"/>
    </contour>
  </outline>
</glyph>
<glyph name="lcaron.color2" format="2">
  <advance width="600"/>
  <unicode hex="013E"/>
  <outline>
    <contour>
      <point x="106" y="601" type="line"/>
      <point x="104" y="730" type="line"/>
      <point x="104" y="731" type="line"/>
      <point x="132" y="731" type="line"/>
      <point x="127" y="601" type="line"/>
    </contour>
  </outline>
</glyph>
<glyph name="lcaron" format="2">
  <advance width="166"/>
  <unicode hex="013E"/>
  <anchor x="92" y="0" name="bottom"/>
  <anchor x="74" y="730" name="top"/>
  <outline>
    <contour>
      <point x="50" y="730" type="line"/>
      <point x="74" y="730" type="line"/>
      <point x="74" y="0" type="line"/>
      <point x="73" y="0" type="line"/>
      <point x="50" y="23" type="line"/>
    </contour>
    <contour>
      <point x="136" y="0" type="line"/>
      <point x="74" y="0" type="line"/>
      <point x="74" y="24" type="line"/>
      <point x="136" y="24" type="line"/>
      <point x="136" y="23" type="line"/>
    </contour>
    <contour>
      <point x="106" y="601" type="line"/>
      <point x="104" y="730" type="line"/>
      <point x="104" y="731" type="line"/>
      <point x="132" y="731" type="line"/>
      <point x="127" y="601" type="line"/>
    </contour>
  </outline>
</glyph>
<glyph name="ldot" format="2">
  <advance width="182"/>
  <unicode hex="0140"/>
  <anchor x="92" y="0" name="bottom"/>
  <anchor x="74" y="730" name="top"/>
  <outline>
    <contour>
      <point x="50" y="730" type="line"/>
      <point x="74" y="730" type="line"/>
      <point x="74" y="0" type="line"/>
      <point x="73" y="0" type="line"/>
      <point x="50" y="23" type="line"/>
    </contour>
    <contour>
      <point x="136" y="0" type="line"/>
      <point x="74" y="0" type="line"/>
      <point x="74" y="24" type="line"/>
      <point x="136" y="24" type="line"/>
      <point x="136" y="23" type="line"/>
    </contour>
    <contour>
      <point x="128" y="329" type="line"/>
      <point x="97" y="329" type="line"/>
      <point x="97" y="353" type="line"/>
      <point x="128" y="353" type="line"/>
    </contour>
  </outline>
</glyph>
<glyph name="Lslash" format="2">
  <advance width="309"/>
  <unicode hex="0141"/>
  <anchor x="182" y="0" name="bottom"/>
  <anchor x="103" y="700" name="top"/>
  <outline>
    <contour>
      <point x="166" y="423" type="line"/>
      <point x="59" y="294" type="line"/>
      <point x="43" y="312" type="line"/>
      <point x="150" y="441" type="line"/>
      <point x="150" y="440" type="line"/>
    </contour>
    <contour>
      <point x="83" y="700" type="line"/>
      <point x="106" y="700" type="line"/>
      <point x="107" y="700" type="line"/>
      <point x="107" y="24" type="line"/>
      <point x="83" y="24" type="line"/>
    </contour>
    <contour>
      <point x="106" y="0" type="line"/>
      <point x="83" y="23" type="line"/>
      <point x="83" y="24" type="line"/>
      <point x="286" y="24" type="line"/>
      <point x="286" y="0" type="line"/>
    </contour>
  </outline>
</glyph>
<glyph name="lslash.color0" format="2">
  <advance width="600"/>
  <unicode hex="0142"/>
  <outline>
    <contour>
      <point x="176" y="423" type="line"/>
      <point x="69" y="294" type="line"/>
      <point x="53" y="312" type="line"/>
      <point x="160" y="441" type="line"/>
      <point x="160" y="440" type="line"/>
    </contour>
  </outline>
</glyph>
<glyph name="Nacute.color3" format="2">
  <advance width="600"/>
  <unicode hex="0143"/>
  <outline>
    <contour>
      <point x="150" y="735" type="line"/>
      <point x="170" y="855" type="line"/>
      <point x="201" y="855" type="line"/>
      <point x="201" y="854" type="line"/>
      <point x="174" y="735" type="line"/>
    </contour>
  </outline>
</glyph>
<glyph name="Ncaron.color1" format="2">
  <advance width="600"/>
  <unicode hex="0147"/>
  <outline>
    <contour>
      <point x="260" y="700" type="line"/>
      <point x="260" y="22" type="line"/>
      <point x="236" y="46" type="line"/>
      <point x="236" y="700" type="line"/>
    </contour>
  </outline>
</glyph>
<glyph name="ncaron" format="2">
  <advance width="198"/>
  <unicode hex="0148"/>
  <anchor x="102" y="0" name="bottom"/>
  <anchor x="100" y="500" name="top"/>
  <outline>
    <contour>
      <point x="50" y="477" type="line"/>
      <point x="73" y="500" type="line"/>
      <point x="74" y="500" type="line"/>
      <point x="74" y="0" type="line"/>
      <point x="50" y="0" type="line"/>
    </contour>
    <contour>
      <point x="125" y="500" type="line"/>
      <point x="148" y="477" type="line"/>
      <point x="148" y="476" type="line"/>
      <point x="74" y="476" type="line"/>
      <point x="74" y="500" type="line"/>
    </contour>
    <contour>
      <point x="148" y="20" type="line"/>
      <point x="125" y="-3" type="line"/>
      <point x="124" y="-3" type="line"/>
      <point x="124" y="476" type="line"/>
      <point x="148" y="476" type="line"/>
    </contour>
    <contour>
      <point x="44" y="680" type="line"/>
      <point x="68" y="680" type="line"/>
      <point x="111" y="602" type="line"/>
      <point x="89" y="590" type="line"/>
      <point x="88" y="590" type="line"/>
    </contour>
    <contour>
      <point x="158" y="680" type="line"/>
      <point x="112" y="590" type="line"/>
      <point x="89" y="590" type="line"/>
      <point x="134" y="680" type="line"/>
    </contour>
  </outline>
</glyph>
<glyph name="OE.color1" format="2">
  <advance width="600"/>
  <unicode hex="0152"/>
  <outline>
    <contour>
      <point x="340" y="676" type="line"/>
      <point x="220" y="676" type="line"/>
      <point x="197" y="700" type="line"/>
      <point x="363" y="700" type="line"/>
      <point x="363" y="699" type="line"/>
    </contour>
  </outline>
</glyph>
<glyph name="racute" format="2">
  <advance width="157"/>
  <unicode hex="0155"/>
  <anchor x="62" y="0" name="bottom"/>
  <anchor x="100" y="500" name="top"/>
  <outline>
    <contour>
      <point x="50" y="477" type="line"/>
      <point x="73" y="500" type="line"/>
      <point x="74" y="500" type="line"/>
      <point x="74" y="0" type="line"/>
      <point x="50" y="0" type="line"/>
    </contour>
    <contour>
      <point x="124" y="500" type="line"/>
      <point x="147" y="477" type="line"/>
      <point x="147" y="476" type="line"/>
      <point x="74" y="476" type="line"/>
      <point x="74" y="500" type="line"/>
    </contour>
    <contour>
      <point x="84" y="570" type="line"/>
      <point x="109" y="700" type="line"/>
      <point x="140" y="700" type="line"/>
      <point x="140" y="699" type="line"/>
      <point x="108" y="570" type="line"/>
    </contour>
  </outline>
</glyph>
<glyph name="Rcommaaccent.color5" format="2">
  <advance width="600"/>
  <unicode hex="0156"/>
  <outline>
    <contour>
      <point x="153" y="-118" type="line"/>
      <point x="130" y="-141" type="line"/>
      <point x="129" y="-141" type="line"/>
      <point x="129" y="-50" type="line"/>
      <point x="153" y="-50" type="line"/>
    </contour>
  </outline>
</glyph>
<glyph name="Sacute.color5" format="2">
  <advance width="600"/>
  <unicode hex="015A"/>
  <outline>
    <contour>
      <point x="110" y="735" type="line"/>
      <point x="130" y="855" type="line"/>
      <point x="161" y="855" type="line"/>
      <point x="161" y="854" type="line"/>
      <point x="134" y="735" type="line"/>
    </contour>
  </outline>
</glyph>
<glyph name="sacute.color1" format="2">
  <advance width="600"/>
  <unicode hex="015B"/>
  <outline>
    <contour>
      <point x="108" y="24" type="line"/>
      <point x="35" y="467" type="line"/>
      <point x="58" y="500" type="line"/>
      <point x="131" y="25" type="line"/>
      <point x="131" y="24" type="line"/>
    </contour>
  </outline>
</glyph>
<glyph name="Scedilla.color6" format="2">
  <advance width="600"/>
  <unicode hex="015E"/>
  <outline>
    <contour>
      <point x="153" y="-91" type="line"/>
      <point x="133" y="-109" type="line"/>
      <point x="132" y="-109" type="line"/>
      <point x="132" y="-44" type="line"/>
      <point x="153" y="-44" type="line"/>
    </contour>
  </outline>
</glyph>
<glyph name="Scedilla.color7" format="2">
  <advance width="600"/>
  <unicode hex="015E"/>
  <outline>
    <contour>
      <point x="135" y="-25" type="line"/>
      <point x="153" y="-43" type="line"/>
      <point x="153" y="-44" type="line"/>
      <point x="118" y="-44" type="line"/>
      <point x="118" y="-25" type="line"/>
    </contour>
  </outline>
</glyph>
<glyph name="scedilla.color3" format="2">
  <advance width="600"/>
  <unicode hex="015F"/>
  <outline>
    <contour>
      <point x="65" y="-109" type="line"/>
      <point x="47" y="-91" type="line"/>
      <point x="47" y="-90" type="line"/>
      <point x="97" y="-90" type="line"/>
      <point x="97" y="-109" type="line"/>
    </contour>
  </outline>
</glyph>
<glyph name="Scaron.color5" format="2">
  <advance width="600"/>
  <unicode hex="0160"/>
  <outline>
    <contour>
      <point x="71" y="840" type="line"/>
      <point x="95" y="840" type="line"/>
      <point x="138" y="762" type="line"/>
      <point x="116" y="750" type="line"/>
      <point x="115" y="750" type="line"/>
    </contour>
  </outline>
</glyph>
<glyph name="scaron.color3" format="2">
  <advance width="600"/>
  <unicode hex="0161"/>
  <outline>
    <contour>
      <point x="39" y="680" type="line"/>
      <point x="63" y="680" type="line"/>
      <point x="106" y="602" type="line"/>
      <point x="84" y="590" type="line"/>
      <point x="83" y="590" type="line"/>
    </contour>
  </outline>
</glyph>
<glyph name="tcedilla.color5" format="2">
  <advance width="600"/>
  <unicode hex="0163"/>
  <outline>
    <contour>
      <point x="131" y="-91" type="line"/>
      <point x="111" y="-109" type="line"/>
      <point x="110" y="-109" type="line"/>
      <point x="110" y="-44" type="line"/>
      <point x="131" y="-44" type="line"/>
    </contour>
  </outline>
</glyph>
<glyph name="tcedilla.color7" format="2">
  <advance width="600"/>
  <unicode hex="0163"/>
  <outline>
    <contour>
      <point x="75" y="-44" type="line"/>
      <point x="75" y="-43" type="line"/>
      <point x="87" y="0" type="line"/>
      <point x="111" y="0" type="line"/>
      <point x="111" y="-1" type="line"/>
      <point x="96" y="-44" type="line"/>
    </contour>
  </outline>
</glyph>
<glyph name="Utilde.color3" format="2">
  <advance width="600"/>
  <unicode hex="0168"/>
  <outline>
    <contour>
      <point x="82" y="787" type="line"/>
      <point x="82" y="838" type="line"/>
      <point x="106" y="839" type="line"/>
      <point x="106" y="787" type="line"/>
    </contour>
  </outline>
</glyph>
<glyph name="Utilde.color5" format="2">
  <advance width="600"/>
  <unicode hex="0168"/>
  <outline>
    <contour>
      <point x="82" y="838" type="line"/>
      <point x="82" y="839" type="line"/>
      <point x="104" y="848" type="line"/>
      <point x="105" y="848" type="line"/>
      <point x="201" y="796" type="line"/>
      <point x="201" y="795" type="line"/>
      <point x="179" y="786" type="line"/>
      <point x="178" y="786" type="line"/>
    </contour>
  </outline>
</glyph>
<glyph name="ubreve" format="2">
  <advance width="197"/>
  <unicode hex="016D"/>
  <anchor x="102" y="0" name="bottom"/>
  <anchor x="123" y="500" name="horn"/>
  <anchor x="100" y="500" name="top"/>
  <outline>
    <contour>
      <point x="147" y="0" type="line"/>
      <point x="124" y="0" type="line"/>
      <point x="123" y="0" type="line"/>
      <point x="123" y="500" type="line"/>
      <point x="147" y="500" type="line"/>
    </contour>
    <contour>
      <point x="73" y="0" type="line"/>
      <point x="50" y="23" type="line"/>
      <point x="50" y="24" type="line"/>
      <point x="123" y="24" type="line"/>
      <point x="123" y="0" type="line"/>
    </contour>
    <contour>
      <point x="50" y="483" type="line"/>
      <point x="73" y="506" type="line"/>
      <point x="74" y="506" type="line"/>
      <point x="74" y="24" type="line"/>
      <point x="50" y="24" type="line"/>
    </contour>
    <contour>
      <point x="86" y="622" type="line"/>
      <point x="60" y="622" type="line"/>
      <point x="31" y="671" type="line"/>
      <point x="31" y="672" type="line"/>
      <point x="57" y="672" type="line"/>
    </contour>
    <contour>
      <point x="112" y="622" type="line"/>
      <point x="141" y="672" type="line"/>
      <point x="167" y="672" type="line"/>
      <point x="167" y="671" type="line"/>
      <point x="138" y="622" type="line"/>
    </contour>
    <contour>
      <point x="125" y="600" type="line"/>
      <point x="73" y="600" type="line"/>
      <point x="60" y="622" type="line"/>
      <point x="138" y="622" type="line"/>
    </contour>
  </outline>
</glyph>
<glyph name="uring.color3" format="2">
  <advance width="600"/>
  <unicode hex="016F"/>
  <outline>
    <contour>
      <point x="61" y="658" type="line"/>
      <point x="79" y="676" type="line"/>
      <point x="80" y="676" type="line"/>
      <point x="80" y="591" type="line"/>
      <point x="61" y="591" type="line"/>
    </contour>
  </outline>
</glyph>
<glyph name="uring.color4" format="2">
  <advance width="600"/>
  <unicode hex="016F"/>
  <outline>
    <contour>
      <point x="120" y="676" type="line"/>
      <point x="138" y="658" type="line"/>
      <point x="138" y="657" type="line"/>
      <point x="80" y="657" type="line"/>
      <point x="80" y="676" type="line"/>
    </contour>
  </outline>
</glyph>
<glyph name="uhungarumlaut.color4" format="2">
  <advance width="600"/>
  <unicode hex="0171"/>
  <outline>
    <contour>
      <point x="115" y="570" type="line"/>
      <point x="140" y="700" type="line"/>
      <point x="171" y="700" type="line"/>
      <point x="171" y="699" type="line"/>
      <point x="139" y="570" type="line"/>
    </contour>
  </outline>
</glyph>
<glyph name="wcircumflex.color5" format="2">
  <advance width="600"/>
  <unicode hex="0175"/>
  <outline>
    <contour>
      <point x="84" y="590" type="line"/>
      <point x="130" y="680" type="line"/>
      <point x="153" y="680" type="line"/>
      <point x="108" y="590" type="line"/>
    </contour>
  </outline>
</glyph>
<glyph name="wcircumflex" format="2">
  <advance width="270"/>
  <unicode hex="0175"/>
  <anchor x="147" y="602" name="top"/>
  <outline>
    <contour>
      <point x="220" y="23" type="line"/>
      <point x="197" y="0" type="line"/>
      <point x="196" y="0" type="line"/>
      <point x="196" y="500" type="line"/>
      <point x="220" y="500" type="line"/>
    </contour>
    <contour>
      <point x="123" y="480" type="line"/>
      <point x="146" y="503" type="line"/>
      <point x="147" y="503" type="line"/>
      <point x="147" y="24" type="line"/>
      <point x="123" y="24" type="line"/>
    </contour>
    <contour>
      <point x="50" y="480" type="line"/>
      <point x="73" y="503" type="line"/>
      <point x="74" y="503" type="line"/>
      <point x="74" y="24" type="line"/>
      <point x="50" y="24" type="line"/>
    </contour>
    <contour>
      <point x="73" y="0" type="line"/>
      <point x="50" y="23" type="line"/>
      <point x="50" y="24" type="line"/>
      <point x="123" y="24" type="line"/>
      <point x="123" y="0" type="line"/>
    </contour>
    <contour>
      <point x="146" y="0" type="line"/>
      <point x="123" y="23" type="line"/>
      <point x="123" y="24" type="line"/>
      <point x="196" y="24" type="line"/>
      <point x="196" y="0" type="line"/>
    </contour>
    <contour>
      <point x="198" y="590" type="line"/>
      <point x="174" y="590" type="line"/>
      <point x="130" y="680" type="line"/>
      <point x="153" y="680" type="line"/>
      <point x="154" y="680" type="line"/>
    </contour>
    <contour>
      <point x="84" y="590" type="line"/>
      <point x="130" y="680" type="line"/>
      <point x="153" y="680" type="line"/>
      <point x="108" y="590" type="line"/>
    </contour>
  </outline>
</glyph>
<glyph name="ycircumflex" format="2">
  <advance width="197"/>
  <unicode hex="0177"/>
  <anchor x="99" y="-200" name="bottom"/>
  <anchor x="107" y="602" name="top"/>
  <outline>
    <contour>
      <point x="73" y="0" type="line"/>
      <point x="50" y="23" type="line"/>
      <point x="50" y="24" type="line"/>
      <point x="123" y="24" type="line"/>
      <point x="123" y="0" type="line"/>
    </contour>
    <contour>
      <point x="146" y="-177" type="line"/>
      <point x="124" y="-200" type="line"/>
      <point x="123" y="-200" type="line"/>
      <point x="123" y="500" type="line"/>
      <point x="147" y="500" type="line"/>
    </contour>
    <contour>
      <point x="50" y="477" type="line"/>
      <point x="73" y="503" type="line"/>
      <point x="74" y="503" type="line"/>
      <point x="74" y="24" type="line"/>
      <point x="50" y="24" type="line"/>
    </contour>
    <contour>
      <point x="50" y="-200" type="line"/>
      <point x="50" y="-177" type="line"/>
      <point x="50" y="-176" type="line"/>
      <point x="123" y="-176" type="line"/>
      <point x="123" y="-200" type="line"/>
    </contour>
    <contour>
      <point x="158" y="590" type="line"/>
      <point x="134" y="590" type="line"/>
      <point x="90" y="680" type="line"/>
      <point x="113" y="680" type="line"/>
      <point x="114" y="680" type="line"/>
    </contour>
    <contour>
      <point x="44" y="590" type="line"/>
      <point x="90" y="680" type="line"/>
      <point x="113" y="680" type="line"/>
      <point x="68" y="590" type="line"/>
    </contour>
  </outline>
</glyph>
<glyph name="Ydieresis" format="2">
  <advance width="250"/>
  <unicode hex="0178"/>
  <anchor x="129" y="0" name="bottom"/>
  <anchor x="127" y="700" name="top"/>
  <outline>
    <contour>
      <point x="23" y="700" type="line"/>
      <point x="47" y="700" type="line"/>
      <point x="140" y="356" type="line"/>
      <point x="118" y="350" type="line"/>
      <point x="117" y="350" type="line"/>
    </contour>
    <contour>
      <point x="227" y="700" type="line"/>
      <point x="141" y="350" type="line"/>
      <point x="118" y="350" type="line"/>
      <point x="203" y="700" type="line"/>
    </contour>
    <contour>
      <point x="141" y="0" type="line"/>
      <point x="117" y="0" type="line"/>
      <point x="117" y="350" type="line"/>
      <point x="141" y="350" type="line"/>
    </contour>
    <contour>
      <point x="110" y="811" type="line"/>
      <point x="79" y="811" type="line"/>
      <point x="79" y="845" type="line"/>
      <point x="110" y="845" type="line"/>
    </contour>
    <contour>
      <point x="175" y="811" type="line"/>
      <point x="144" y="811" type="line"/>
      <point x="144" y="845" type="line"/>
      <point x="175" y="845" type="line"/>
    </contour>
  </outline>
</glyph>
<glyph name="Zdotaccent" format="2">
  <advance width="222"/>
  <unicode hex="017B"/>
  <anchor x="118" y="700" name="top"/>
  <outline>
    <contour>
      <point x="33" y="700" type="line"/>
      <point x="166" y="700" type="line"/>
      <point x="163" y="676" type="line"/>
      <point x="33" y="676" type="line"/>
      <point x="33" y="677" type="line"/>
    </contour>
    <contour>
      <point x="56" y="24" type="line"/>
      <point x="33" y="24" type="line"/>
      <point x="33" y="25" type="line"/>
      <point x="166" y="700" type="line"/>
      <point x="189" y="667" type="line"/>
    </contour>
    <contour>
      <point x="189" y="0" type="line"/>
      <point x="56" y="0" type="line"/>
      <point x="33" y="24" type="line"/>
      <point x="189" y="24" type="line"/>
      <point x="189" y="23" type="line"/>
    </contour>
    <contour>
      <point x="133" y="811" type="line"/>
      <point x="103" y="811" type="line"/>
      <point x="103" y="845" type="line"/>
      <point x="133" y="845" type="line"/>
    </contour>
  </outline>
</glyph>
<glyph name="zcaron" format="2">
  <advance width="172"/>
  <unicode hex="017E"/>
  <anchor x="83" y="500" name="top"/>
  <outline>
    <contour>
      <point x="23" y="500" type="line"/>
      <point x="126" y="500" type="line"/>
      <point x="123" y="476" type="line"/>
      <point x="23" y="476" type="line"/>
      <point x="23" y="477" type="line"/>
    </contour>
    <contour>
      <point x="46" y="24" type="line"/>
      <point x="23" y="24" type="line"/>
      <point x="23" y="25" type="line"/>
      <point x="126" y="500" type="line"/>
      <point x="149" y="467" type="line"/>
    </contour>
    <contour>
      <point x="149" y="0" type="line"/>
      <point x="46" y="0" type="line"/>
      <point x="23" y="24" type="line"/>
      <point x="149" y="24" type="line"/>
      <point x="149" y="23" type="line"/>
    </contour>
    <contour>
      <point x="27" y="680" type="line"/>
      <point x="51" y="680" type="line"/>
      <point x="94" y="602" type="line"/>
      <point x="72" y="590" type="line"/>
      <point x="71" y="590" type="line"/>
    </contour>
    <contour>
      <point x="141" y="680" type="line"/>
      <point x="95" y="590" type="line"/>
      <point x="72" y="590" type="line"/>
      <point x="117" y="680" type="line"/>
    </contour>
  </outline>
</glyph>
<glyph name="Schwa" format="2">
  <advance width="253"/>
  <unicode hex="018F"/>
  <outline>
    <contour>
      <point x="200" y="24" type="line"/>
      <point x="177" y="0" type="line"/>
      <point x="176" y="0" type="line"/>
      <point x="176" y="676" type="line"/>
      <point x="200" y="676" type="line"/>
    </contour>
    <contour>
      <point x="56" y="0" type="line"/>
      <point x="33" y="23" type="line"/>
      <point x="33" y="24" type="line"/>
      <point x="176" y="24" type="line"/>
      <point x="176" y="0" type="line"/>
    </contour>
    <contour>
      <point x="57" y="347" type="line"/>
      <point x="176" y="347" type="line"/>
      <point x="176" y="323" type="line"/>
      <point x="57" y="323" type="line"/>
    </contour>
    <contour>
      <point x="56" y="700" type="line"/>
      <point x="176" y="700" type="line"/>
      <point x="200" y="677" type="line"/>
      <point x="200" y="676" type="line"/>
      <point x="33" y="676" type="line"/>
      <point x="33" y="677" type="line"/>
    </contour>
    <contour>
      <point x="33" y="324" type="line"/>
      <point x="56" y="347" type="line"/>
      <point x="57" y="347" type="line"/>
      <point x="57" y="24" type="line"/>
      <point x="33" y="24" type="line"/>
    </contour>
  </outline>
</glyph>
<glyph name="DZcaron.color4" format="2">
  <advance width="600"/>
  <unicode hex="01C4"/>
  <outline>
    <contour>
      <point x="276" y="700" type="line"/>
      <point x="409" y="700" type="line"/>
      <point x="406" y="676" type="line"/>
      <point x="276" y="676" type="line"/>
      <point x="276" y="677" type="line"/>
    </contour>
  </outline>
</glyph>
<glyph name="DZcaron.color8" format="2">
  <advance width="600"/>
  <unicode hex="01C4"/>
  <outline>
    <contour>
      <point x="418" y="840" type="line"/>
      <point x="372" y="750" type="line"/>
      <point x="349" y="750" type="line"/>
      <point x="394" y="840" type="line"/>
    </contour>
  </outline>
</glyph>
<glyph name="Dzcaron.color6" format="2">
  <advance width="600"/>
  <unicode hex="01C5"/>
  <outline>
    <contour>
      <point x="424" y="0" type="line"/>
      <point x="321" y="0" type="line"/>
      <point x="298" y="24" type="line"/>
      <point x="424" y="24" type="line"/>
      <point x="424" y="23" type="line"/>
    </contour>
  </outline>
</glyph>
<glyph name="Dzcaron" format="2">
  <advance width="447"/>
  <unicode hex="01C5"/>
  <anchor x="65" y="365" name="stroke"/>
  <anchor x="358" y="500" name="top"/>
  <outline>
    <contour>
      <point x="53" y="700" type="line"/>
      <point x="76" y="700" type="line"/>
      <point x="77" y="700" type="line"/>
      <point x="77" y="24" type="line"/>
      <point x="53" y="24" type="line"/>
    </contour>
    <contour>
      <point x="199" y="700" type="line"/>
      <point x="222" y="677" type="line"/>
      <point x="222" y="676" type="line"/>
      <point x="77" y="676" type="line"/>
      <point x="77" y="700" type="line"/>
    </contour>
    <contour>
      <point x="222" y="23" type="line"/>
      <point x="199" y="0" type="line"/>
      <point x="198" y="0" type="line"/>
      <point x="198" y="676" type="line"/>
      <point x="222" y="676" type="line"/>
    </contour>
    <contour>
      <point x="53" y="0" type="line"/>
      <point x="53" y="23" type="line"/>
      <point x="53" y="24" type="line"/>
      <point x="198" y="24" type="line"/>
      <point x="198" y="0" type="line"/>
    </contour>
    <contour>
      <point x="298" y="500" type="line"/>
      <point x="401" y="500" type="line"/>
      <point x="398" y="476" type="line"/>
      <point x="298" y="476" type="line"/>
      <point x="298" y="477" type="line"/>
    </contour>
    <contour>
      <point x="321" y="24" type="line"/>
      <point x="298" y="24" type="line"/>
      <point x="298" y="25" type="line"/>
      <point x="401" y="500" type="line"/>
      <point x="424" y="467" type="line"/>
    </contour>
    <contour>
      <point x="424" y="0" type="line"/>
      <point x="321" y="0" type="line"/>
      <point x="298" y="24" type="line"/>
      <point x="424" y="24" type="line"/>
      <point x="424" y="23" type="line"/>
    </contour>
    <contour>
      <point x="302" y="680" type="line"/>
      <point x="326" y="680" type="line"/>
      <point x="369" y="602" type="line"/>
      <point x="347" y="590" type="line"/>
      <point x="346" y="590" type="line"/>
    </contour>
    <contour>
      <point x="416" y="680" type="line"/>
      <point x="370" y="590" type="line"/>
      <point x="347" y="590" type="line"/>
      <point x="392" y="680" type="line"/>
    </contour>
  </outline>
</glyph>
<glyph name="dzcaron.color6" format="2">
  <advance width="600"/>
  <unicode hex="01C6"/>
  <outline>
    <contour>
      <point x="199" y="24" type="line"/>
      <point x="176" y="24" type="line"/>
      <point x="176" y="25" type="line"/>
      <point x="279" y="500" type="line"/>
      <point x="302" y="467" type="line"/>
    </contour>
  </outline>
</glyph>
<glyph name="dzcaron.color7" format="2">
  <advance width="600"/>
  <unicode hex="01C6"/>
  <outline>
    <contour>
      <point x="302" y="0" type="line"/>
      <point x="199" y="0" type="line"/>
      <point x="176" y="24" type="line"/>
      <point x="302" y="24" type="line"/>
      <point x="302" y="23" type="line"/>
    </contour>
  </outline>
</glyph>
<glyph name="dzcaron" format="2">
  <advance width="385"/>
  <unicode hex="01C6"/>
  <anchor x="103" y="578" name="stroke"/>
  <anchor x="236" y="500" name="top"/>
  <outline>
    <contour>
      <point x="50" y="477" type="line"/>
      <point x="73" y="500" type="line"/>
      <point x="74" y="500" type="line"/>
      <point x="74" y="24" type="line"/>
      <point x="50" y="24" type="line"/>
    </contour>
    <contour>
      <point x="124" y="500" type="line"/>
      <point x="147" y="477" type="line"/>
      <point x="147" y="476" type="line"/>
      <point x="74" y="476" type="line"/>
      <point x="74" y="500" type="line"/>
    </contour>
    <contour>
      <point x="147" y="23" type="line"/>
      <point x="124" y="0" type="line"/>
      <point x="123" y="0" type="line"/>
      <point x="123" y="476" type="line"/>
      <point x="147" y="476" type="line"/>
    </contour>
    <contour>
      <point x="73" y="0" type="line"/>
      <point x="50" y="23" type="line"/>
      <point x="50" y="24" type="line"/>
      <point x="123" y="24" type="line"/>
      <point x="123" y="0" type="line"/>
    </contour>
    <contour>
      <point x="123" y="500" type="line"/>
      <point x="123" y="730" type="line"/>
      <point x="147" y="730" type="line"/>
      <point x="147" y="477" type="line"/>
      <point x="146" y="477" type="line"/>
    </contour>
    <contour>
      <point x="176" y="500" type="line"/>
      <point x="279" y="500" type="line"/>
      <point x="276" y="476" type="line"/>
      <point x="176" y="476" type="line"/>
      <point x="176" y="477" type="line"/>
    </contour>
    <contour>
      <point x="199" y="24" type="line"/>
      <point x="176" y="24" type="line"/>
      <point x="176" y="25" type="line"/>
      <point x="279" y="500" type="line"/>
      <point x="302" y="467" type="line"/>
    </contour>
    <contour>
      <point x="302" y="0" type="line"/>
      <point x="199" y="0" type="line"/>
      <point x="176" y="24" type="line"/>
      <point x="302" y="24" type="line"/>
      <point x="302" y="23" type="line"/>
    </contour>
    <contour>
      <point x="180" y="680" type="line"/>
      <point x="204" y="680" type="line"/>
      <point x="247" y="602" type="line"/>
      <point x="225" y="590" type="line"/>
      <point x="224" y="590" type="line"/>
    </contour>
    <contour>
      <point x="294" y="680" type="line"/>
      <point x="248" y="590" type="line"/>
      <point x="225" y="590" type="line"/>
      <point x="270" y="680" type="line"/>
    </contour>
  </outline>
</glyph>
<glyph name="LJ.color4" format="2">
  <advance width="600"/>
  <unicode hex="01C7"/>
  <outline>
    <contour>
      <point x="513" y="676" type="line"/>
      <point x="443" y="676" type="line"/>
      <point x="443" y="700" type="line"/>
      <point x="513" y="700" type="line"/>
    </contour>
  </outline>
</glyph>
<glyph name="Nj.color3" format="2">
  <advance width="600"/>
  <unicode hex="01CB"/>
  <outline>
    <contour>
      <point x="353" y="480" type="line"/>
      <point x="376" y="503" type="line"/>
      <point x="377" y="503" type="line"/>
      <point x="377" y="-177" type="line"/>
      <point x="354" y="-200" type="line"/>
      <point x="353" y="-200" type="line"/>
    </contour>
  </outline>
</glyph>
<glyph name="gcaron.color5" format="2">
  <advance width="600"/>
  <unicode hex="01E7"/>
  <outline>
    <contour>
      <point x="54" y="680" type="line"/>
      <point x="78" y="680" type="line"/>
      <point x="121" y="602" type="line"/>
      <point x="99" y="590" type="line"/>
      <point x="98" y="590" type="line"/>
    </contour>
  </outline>
</glyph>
<glyph name="Aringacute.color4" format="2">
  <advance width="600"/>
  <unicode hex="01FA"/>
  <outline>
    <contour>
      <point x="94" y="803" type="line"/>
      <point x="114" y="821" type="line"/>
      <point x="115" y="821" type="line"/>
      <point x="115" y="758" type="line"/>
      <point x="94" y="758" type="line"/>
    </contour>
  </outline>
</glyph>
<glyph name="aringacute.color5" format="2">
  <advance width="600"/>
  <unicode hex="01FB"/>
  <outline>
    <contour>
      <point x="125" y="641" type="line"/>
      <point x="143" y="623" type="line"/>
      <point x="143" y="622" type="line"/>
      <point x="85" y="622" type="line"/>
      <point x="85" y="641" type="line"/>
    </contour>
  </outline>
</glyph>
<glyph name="AEacute.color4" format="2">
  <advance width="600"/>
  <unicode hex="01FC"/>
  <outline>
    <contour>
      <point x="363" y="24" type="line"/>
      <point x="363" y="0" type="line"/>
      <point x="220" y="0" type="line"/>
      <point x="196" y="23" type="line"/>
      <point x="196" y="24" type="line"/>
    </contour>
  </outline>
</glyph>
<glyph name="Idblgrave.color5" format="2">
  <advance width="600"/>
  <unicode hex="0208"/>
  <outline>
    <contour>
      <point x="156" y="770" type="line"/>
      <point x="132" y="770" type="line"/>
      <point x="100" y="859" type="line"/>
      <point x="100" y="860" type="line"/>
      <point x="131" y="860" type="line"/>
    </contour>
  </outline>
</glyph>
<glyph name="Idblgrave" format="2">
  <advance width="226"/>
  <unicode hex="0208"/>
  <anchor x="112" y="0" name="bottom"/>
  <anchor x="115" y="700" name="top"/>
  <outline>
    <contour>
      <point x="101" y="676" type="line"/>
      <point x="124" y="700" type="line"/>
      <point x="125" y="700" type="line"/>
      <point x="125" y="24" type="line"/>
      <point x="102" y="0" type="line"/>
      <point x="101" y="0" type="line"/>
    </contour>
    <contour>
      <point x="101" y="676" type="line"/>
      <point x="20" y="676" type="line"/>
      <point x="20" y="700" type="line"/>
      <point x="124" y="700" type="line"/>
    </contour>
    <contour>
      <point x="205" y="676" type="line"/>
      <point x="125" y="676" type="line"/>
      <point x="125" y="700" type="line"/>
      <point x="205" y="700" type="line"/>
    </contour>
    <contour>
      <point x="125" y="24" type="line"/>
      <point x="206" y="24" type="line"/>
      <point x="206" y="0" type="line"/>
      <point x="102" y="0" type="line"/>
    </contour>
    <contour>
      <point x="21" y="24" type="line"/>
      <point x="101" y="24" type="line"/>
      <point x="101" y="0" type="line"/>
      <point x="21" y="0" type="line"/>
    </contour>
    <contour>
      <point x="156" y="770" type="line"/>
      <point x="132" y="770" type="line"/>
      <point x="100" y="859" type="line"/>
      <point x="100" y="860" type="line"/>
      <point x="131" y="860" type="line"/>
    </contour>
    <contour>
      <point x="99" y="770" type="line"/>
      <point x="75" y="770" type="line"/>
      <point x="43" y="859" type="line"/>
      <point x="43" y="860" type="line"/>
      <point x="74" y="860" type="line"/>
    </contour>
  </outline>
</glyph>
<glyph name="idblgrave.color1" format="2">
  <advance width="600"/>
  <unicode hex="0209"/>
  <outline>
    <contour>
      <point x="128" y="570" type="line"/>
      <point x="104" y="570" type="line"/>
      <point x="72" y="699" type="line"/>
      <point x="72" y="700" type="line"/>
      <point x="103" y="700" type="line"/>
    </contour>
    <contour>
      <point x="76" y="570" type="line"/>
      <point x="52" y="570" type="line"/>
      <point x="20" y="699" type="line"/>
      <point x="20" y="700" type="line"/>
      <point x="51" y="700" type="line"/>
    </contour>
  </outline>
</glyph>
<glyph name="Iinvertedbreve.color6" format="2">
  <advance width="600"/>
  <unicode hex="020A"/>
  <outline>
    <contour>
      <point x="130" y="818" type="line"/>
      <point x="162" y="818" type="line"/>
      <point x="193" y="782" type="line"/>
      <point x="193" y="781" type="line"/>
      <point x="161" y="781" type="line"/>
    </contour>
  </outline>
</glyph>
<glyph name="iinvertedbreve.color1" format="2">
  <advance width="600"/>
  <unicode hex="020B"/>
  <outline>
    <contour>
      <point x="49" y="640" type="line"/>
      <point x="30" y="590" type="line"/>
      <point x="4" y="590" type="line"/>
      <point x="4" y="591" type="line"/>
      <point x="26" y="640" type="line"/>
    </contour>
  </outline>
</glyph>
<glyph name="odblgrave.color5" format="2">
  <advance width="600"/>
  <unicode hex="020D"/>
  <outline>
    <contour>
      <point x="87" y="570" type="line"/>
      <point x="63" y="570" type="line"/>
      <point x="31" y="699" type="line"/>
      <point x="31" y="700" type="line"/>
      <point x="62" y="700" type="line"/>
    </contour>
  </outline>
</glyph>
<glyph name="Oinvertedbreve.color5" format="2">
  <advance width="600"/>
  <unicode hex="020E"/>
  <outline>
    <contour>
      <point x="153" y="818" type="line"/>
      <point x="185" y="818" type="line"/>
      <point x="216" y="782" type="line"/>
      <point x="216" y="781" type="line"/>
      <point x="184" y="781" type="line"/>
    </contour>
  </outline>
</glyph>
<glyph name="Rdblgrave.color6" format="2">
  <advance width="600"/>
  <unicode hex="0210"/>
  <outline>
    <contour>
      <point x="122" y="770" type="line"/>
      <point x="98" y="770" type="line"/>
      <point x="66" y="859" type="line"/>
      <point x="66" y="860" type="line"/>
      <point x="97" y="860" type="line"/>
    </contour>
  </outline>
</glyph>
<glyph name="rdblgrave.color3" format="2">
  <advance width="600"/>
  <unicode hex="0211"/>
  <outline>
    <contour>
      <point x="88" y="570" type="line"/>
      <point x="64" y="570" type="line"/>
      <point x="32" y="699" type="line"/>
      <point x="32" y="700" type="line"/>
      <point x="63" y="700" type="line"/>
    </contour>
  </outline>
</glyph>
<glyph name="rdblgrave" format="2">
  <advance width="157"/>
  <unicode hex="0211"/>
  <anchor x="62" y="0" name="bottom"/>
  <anchor x="100" y="500" name="top"/>
  <outline>
    <contour>
      <point x="50" y="477" type="line"/>
      <point x="73" y="500" type="line"/>
      <point x="74" y="500" type="line"/>
      <point x="74" y="0" type="line"/>
      <point x="50" y="0" type="line"/>
    </contour>
    <contour>
      <point x="124" y="500" type="line"/>
      <point x="147" y="477" type="line"/>
      <point x="147" y="476" type="line"/>
      <point x="74" y="476" type="line"/>
      <point x="74" y="500" type="line"/>
    </contour>
    <contour>
      <point x="140" y="570" type="line"/>
      <point x="116" y="570" type="line"/>
      <point x="84" y="699" type="line"/>
      <point x="84" y="700" type="line"/>
      <point x="115" y="700" type="line"/>
    </contour>
    <contour>
      <point x="88" y="570" type="line"/>
      <point x="64" y="570" type="line"/>
      <point x="32" y="699" type="line"/>
      <point x="32" y="700" type="line"/>
      <point x="63" y="700" type="line"/>
    </contour>
  </outline>
</glyph>
<glyph name="rinvertedbreve.color3" format="2">
  <advance width="600"/>
  <unicode hex="0213"/>
  <outline>
    <contour>
      <point x="90" y="648" type="line"/>
      <point x="61" y="598" type="line"/>
      <point x="35" y="598" type="line"/>
      <point x="35" y="599" type="line"/>
      <point x="64" y="648" type="line"/>
    </contour>
  </outline>
</glyph>
<glyph name="Scommaaccent.color0" format="2">
  <advance width="600"/>
  <unicode hex="0218"/>
  <outline>
    <contour>
      <point x="43" y="677" type="line"/>
      <point x="66" y="700" type="line"/>
      <point x="67" y="700" type="line"/>
      <point x="67" y="377" type="line"/>
      <point x="66" y="377" type="line"/>
      <point x="43" y="377" type="line"/>
    </contour>
  </outline>
</glyph>
<glyph name="scommaaccent" format="2">
  <advance width="166"/>
  <unicode hex="0219"/>
  <anchor x="87" y="0" name="bottom"/>
  <anchor x="95" y="500" name="top"/>
  <outline>
    <contour>
      <point x="108" y="500" type="line"/>
      <point x="131" y="477" type="line"/>
      <point x="131" y="476" type="line"/>
      <point x="61" y="476" type="line"/>
      <point x="58" y="500" type="line"/>
    </contour>
    <contour>
      <point x="108" y="24" type="line"/>
      <point x="35" y="467" type="line"/>
      <point x="58" y="500" type="line"/>
      <point x="131" y="25" type="line"/>
      <point x="131" y="24" type="line"/>
    </contour>
    <contour>
      <point x="58" y="0" type="line"/>
      <point x="35" y="23" type="line"/>
      <point x="35" y="24" type="line"/>
      <point x="131" y="24" type="line"/>
      <point x="108" y="0" type="line"/>
    </contour>
    <contour>
      <point x="98" y="-118" type="line"/>
      <point x="75" y="-141" type="line"/>
      <point x="74" y="-141" type="line"/>
      <point x="74" y="-50" type="line"/>
      <point x="98" y="-50" type="line"/>
    </contour>
  </outline>
</glyph>
<glyph name="tcommaaccent" format="2">
  <advance width="167"/>
  <unicode hex="021B"/>
  <anchor x="100" y="0" name="bottom"/>
  <anchor x="94" y="670" name="top"/>
  <outline>
    <contour>
      <point x="74" y="500" type="line"/>
      <point x="128" y="500" type="line"/>
      <point x="128" y="476" type="line"/>
      <point x="51" y="476" type="line"/>
    </contour>
    <contour>
      <point x="50" y="23" type="line"/>
      <point x="50" y="476" type="line"/>
      <point x="74" y="476" type="line"/>
      <point x="74" y="0" type="line"/>
      <point x="73" y="0" type="line"/>
    </contour>
    <contour>
      <point x="144" y="0" type="line"/>
      <point x="74" y="0" type="line"/>
      <point x="74" y="24" type="line"/>
      <point x="167" y="24" type="line"/>
      <point x="167" y="23" type="line"/>
    </contour>
    <contour>
      <point x="74" y="500" type="line"/>
      <point x="51" y="476" type="line"/>
      <point x="50" y="476" type="line"/>
      <point x="50" y="670" type="line"/>
      <point x="74" y="670" type="line"/>
    </contour>
    <contour>
      <point x="111" y="-118" type="line"/>
      <point x="88" y="-141" type="line"/>
      <point x="87" y="-141" type="line"/>
      <point x="87" y="-50" type="line"/>
      <point x="111" y="-50" type="line"/>
    </contour>
  </outline>
</glyph>
<glyph name="Otildemacron" format="2">
  <advance width="273"/>
  <unicode hex="022C"/>
  <anchor x="142" y="0" name="bottom"/>
  <anchor x="197" y="700" name="horn"/>
  <anchor x="138" y="700" name="top"/>
  <outline>
    <contour>
      <point x="53" y="677" type="line"/>
      <point x="76" y="700" type="line"/>
      <point x="77" y="700" type="line"/>
      <point x="77" y="24" type="line"/>
      <point x="53" y="24" type="line"/>
    </contour>
    <contour>
      <point x="197" y="700" type="line"/>
      <point x="220" y="677" type="line"/>
      <point x="220" y="676" type="line"/>
      <point x="77" y="676" type="line"/>
      <point x="77" y="700" type="line"/>
    </contour>
    <contour>
      <point x="220" y="23" type="line"/>
      <point x="197" y="0" type="line"/>
      <point x="196" y="0" type="line"/>
      <point x="196" y="676" type="line"/>
      <point x="220" y="676" type="line"/>
    </contour>
    <contour>
      <point x="76" y="0" type="line"/>
      <point x="53" y="23" type="line"/>
      <point x="53" y="24" type="line"/>
      <point x="196" y="24" type="line"/>
      <point x="196" y="0" type="line"/>
    </contour>
    <contour>
      <point x="70" y="749" type="line"/>
      <point x="70" y="800" type="line"/>
      <point x="94" y="801" type="line"/>
      <point x="94" y="749" type="line"/>
    </contour>
    <contour>
      <point x="190" y="810" type="line"/>
      <point x="190" y="758" type="line"/>
      <point x="166" y="758" type="line"/>
      <point x="166" y="810" type="line"/>
    </contour>
    <contour>
      <point x="70" y="800" type="line"/>
      <point x="70" y="801" type="line"/>
      <point x="92" y="810" type="line"/>
      <point x="93" y="810" type="line"/>
      <point x="189" y="758" type="line"/>
      <point x="189" y="757" type="line"/>
      <point x="167" y="748" type="line"/>
      <point x="166" y="748" type="line"/>
    </contour>
    <contour>
      <point x="209" y="848" type="line"/>
      <point x="59" y="848" type="line"/>
      <point x="59" y="872" type="line"/>
      <point x="209" y="872" type="line"/>
    </contour>
  </outline>
</glyph>
<glyph name="odotaccentmacron.color4" format="2">
  <advance width="600"/>
  <unicode hex="0231"/>
  <outline>
    <contour>
      <point x="114" y="601" type="line"/>
      <point x="84" y="601" type="line"/>
      <point x="84" y="635" type="line"/>
      <point x="114" y="635" type="line"/>
    </contour>
  </outline>
</glyph>
<glyph name="ymacron.color4" format="2">
  <advance width="600"/>
  <unicode hex="0233"/>
  <outline>
    <contour>
      <point x="155" y="611" type="line"/>
      <point x="45" y="611" type="line"/>
      <point x="45" y="635" type="line"/>
      <point x="155" y="635" type="line"/>
    </contour>
  </outline>
</glyph>
<glyph name="circumflexcomb" format="2">
  <unicode hex="0302"/>
  <anchor x="309" y="500" name="_top"/>
  <anchor x="316" y="602" name="top"/>
  <outline>
    <contour>
      <point x="367" y="590" type="line"/>
      <point x="343" y="590" type="line"/>
      <point x="299" y="680" type="line"/>
      <point x="322" y="680" type="line"/>
      <point x="323" y="680" type="line"/>
    </contour>
    <contour>
      <point x="253" y="590" type="line"/>
      <point x="299" y="680" type="line"/>
      <point x="322" y="680" type="line"/>
      <point x="277" y="590" type="line"/>
    </contour>
  </outline>
</glyph>
<glyph name="tildecomb.color0" format="2">
  <unicode hex="0303"/>
  <outline>
    <contour>
      <point x="245" y="581" type="line"/>
      <point x="245" y="632" type="line"/>
      <point x="265" y="633" type="line"/>
      <point x="265" y="581" type="line"/>
    </contour>
  </outline>
</glyph>
<glyph name="hungarumlautcomb.color0" format="2">
  <unicode hex="030B"/>
  <outline>
    <contour>
      <point x="257" y="570" type="line"/>
      <point x="282" y="700" type="line"/>
      <point x="313" y="700" type="line"/>
      <point x="313" y="699" type="line"/>
      <point x="281" y="570" type="line"/>
    </contour>
  </outline>
</glyph>
<glyph name="dblgravecomb.color0" format="2">
  <unicode hex="030F"/>
  <outline>
    <contour>
      <point x="369" y="570" type="line"/>
      <point x="345" y="570" type="line"/>
      <point x="313" y="699" type="line"/>
      <point x="313" y="700" type="line"/>
      <point x="344" y="700" type="line"/>
    </contour>
  </outline>
</glyph>
<glyph name="breveinvertedcomb.color2" format="2">
  <unicode hex="0311"/>
  <outline>
    <contour>
      <point x="338" y="670" type="line"/>
      <point x="351" y="648" type="line"/>
      <point x="273" y="648" type="line"/>
      <point x="286" y="670" type="line"/>
    </contour>
  </outline>
</glyph>
<glyph name="horncomb" format="2">
  <unicode hex="031B"/>
  <anchor x="309" y="500" name="_horn"/>
  <outline>
    <contour>
      <point x="309" y="500" type="line"/>
      <point x="340" y="500" type="line"/>
      <point x="340" y="476" type="line"/>
      <point x="332" y="476" type="line"/>
    </contour>
    <contour>
      <point x="364" y="499" type="line"/>
      <point x="341" y="476" type="line"/>
      <point x="340" y="476" type="line"/>
      <point x="340" y="567" type="line"/>
      <point x="364" y="567" type="line"/>
    </contour>
  </outline>
</glyph>
<glyph name="dieresisbelowcomb.color0" format="2">
  <unicode hex="0324"/>
  <outline>
    <contour>
      <point x="320" y="-119" type="line"/>
      <point x="289" y="-119" type="line"/>
      <point x="289" y="-85" type="line"/>
      <point x="320" y="-85" type="line"/>
    </contour>
  </outline>
</glyph>
<glyph name="ogonekcomb.color0" format="2">
  <unicode hex="0328"/>
  <outline>
    <contour>
      <point x="338" y="-80" type="line"/>
      <point x="313" y="-80" type="line"/>
      <point x="313" y="-61" type="line"/>
      <point x="356" y="-61" type="line"/>
      <point x="356" y="-62" type="line"/>
    </contour>
  </outline>
</glyph>
<glyph name="wgrave.color4" format="2">
  <advance width="600"/>
  <unicode hex="1E81"/>
  <outline>
    <contour>
      <point x="156" y="570" type="line"/>
      <point x="132" y="570" type="line"/>
      <point x="100" y="699" type="line"/>
      <point x="100" y="700" type="line"/>
      <point x="131" y="700" type="line"/>
    </contour>
  </outline>
</glyph>
<glyph name="Wdieresis.color1" format="2">
  <advance width="600"/>
  <unicode hex="1E84"/>
  <outline>
    <contour>
      <point x="262" y="699" type="line"/>
      <point x="146" y="0" type="line"/>
      <point x="123" y="0" type="line"/>
      <point x="238" y="700" type="line"/>
    </contour>
  </outline>
</glyph>
<glyph name="ahookabove" format="2">
  <advance width="197"/>
  <unicode hex="1EA3"/>
  <anchor x="102" y="0" name="bottom"/>
  <anchor x="102" y="500" name="top"/>
  <outline>
    <contour>
      <point x="50" y="477" type="line"/>
      <point x="73" y="500" type="line"/>
      <point x="74" y="500" type="line"/>
      <point x="74" y="24" type="line"/>
      <point x="50" y="24" type="line"/>
    </contour>
    <contour>
      <point x="124" y="500" type="line"/>
      <point x="147" y="477" type="line"/>
      <point x="147" y="476" type="line"/>
      <point x="74" y="476" type="line"/>
      <point x="74" y="500" type="line"/>
    </contour>
    <contour>
      <point x="147" y="0" type="line"/>
      <point x="124" y="0" type="line"/>
      <point x="123" y="0" type="line"/>
      <point x="123" y="476" type="line"/>
      <point x="147" y="476" type="line"/>
    </contour>
    <contour>
      <point x="73" y="0" type="line"/>
      <point x="50" y="23" type="line"/>
      <point x="50" y="24" type="line"/>
      <point x="123" y="24" type="line"/>
      <point x="123" y="0" type="line"/>
    </contour>
    <contour>
      <point x="144" y="654" type="line"/>
      <point x="67" y="654" type="line"/>
      <point x="67" y="678" type="line"/>
      <point x="126" y="678" type="line"/>
      <point x="144" y="655" type="line"/>
    </contour>
    <contour>
      <point x="111" y="583" type="line"/>
      <point x="88" y="583" type="line"/>
      <point x="88" y="584" type="line"/>
      <point x="126" y="678" type="line"/>
      <point x="144" y="655" type="line"/>
      <point x="144" y="654" type="line"/>
    </contour>
  </outline>
</glyph>
<glyph name="acircumflexacute.color1" format="2">
  <advance width="600"/>
  <unicode hex="1EA5"/>
  <outline>
    <contour>
      <point x="124" y="500" type="line"/>
      <point x="147" y="477" type="line"/>
      <point x="147" y="476" type="line"/>
      <point x="74" y="476" type="line"/>
      <point x="74" y="500" type="line"/>
    </contour>
  </outline>
</glyph>
<glyph name="acircumflextilde.color5" format="2">
  <advance width="600"/>
  <unicode hex="1EAB"/>
  <outline>
    <contour>
      <point x="46" y="540" type="line"/>
      <point x="46" y="541" type="line"/>
      <point x="92" y="630" type="line"/>
      <point x="115" y="630" type="line"/>
      <point x="70" y="540" type="line"/>
    </contour>
  </outline>
</glyph>
<glyph name="acircumflextilde.color7" format="2">
  <advance width="600"/>
  <unicode hex="1EAB"/>
  <outline>
    <contour>
      <point x="160" y="724" type="line"/>
      <point x="160" y="672" type="line"/>
      <point x="140" y="672" type="line"/>
      <point x="140" y="724" type="line"/>
    </contour>
  </outline>
</glyph>
<glyph name="acircumflextilde.color8" format="2">
  <advance width="600"/>
  <unicode hex="1EAB"/>
  <outline>
    <contour>
      <point x="59" y="714" type="line"/>
      <point x="59" y="715" type="line"/>
      <point x="79" y="724" type="line"/>
      <point x="80" y="724" type="line"/>
      <point x="159" y="672" type="line"/>
      <point x="159" y="671" type="line"/>
      <point x="139" y="662" type="line"/>
      <point x="138" y="662" type="line"/>
    </contour>
  </outline>
</glyph>
<glyph name="abrevegrave.color6" format="2">
  <advance width="600"/>
  <unicode hex="1EB1"/>
  <outline>
    <contour>
      <point x="127" y="558" type="line"/>
      <point x="75" y="558" type="line"/>
      <point x="62" y="580" type="line"/>
      <point x="140" y="580" type="line"/>
    </contour>
  </outline>
</glyph>
<glyph name="abrevehookabove.color8" format="2">
  <advance width="600"/>
  <unicode hex="1EB3"/>
  <outline>
    <contour>
      <point x="110" y="638" type="line"/>
      <point x="87" y="638" type="line"/>
      <point x="87" y="639" type="line"/>
      <point x="125" y="733" type="line"/>
      <point x="143" y="710" type="line"/>
      <point x="143" y="709" type="line"/>
    </contour>
  </outline>
</glyph>
<glyph name="abrevehookabove" format="2">
  <advance width="197"/>
  <unicode hex="1EB3"/>
  <anchor x="102" y="0" name="bottom"/>
  <anchor x="102" y="500" name="top"/>
  <outline>
    <contour>
      <point x="50" y="477" type="line"/>
      <point x="73" y="500" type="line"/>
      <point x="74" y="500" type="line"/>
      <point x="74" y="24" type="line"/>
      <point x="50" y="24" type="line"/>
    </contour>
    <contour>
      <point x="124" y="500" type="line"/>
      <point x="147" y="477" type="line"/>
      <point x="147" y="476" type="line"/>
      <point x="74" y="476" type="line"/>
      <point x="74" y="500" type="line"/>
    </contour>
    <contour>
      <point x="147" y="0" type="line"/>
      <point x="124" y="0" type="line"/>
      <point x="123" y="0" type="line"/>
      <point x="123" y="476" type="line"/>
      <point x="147" y="476" type="line"/>
    </contour>
    <contour>
      <point x="73" y="0" type="line"/>
      <point x="50" y="23" type="line"/>
      <point x="50" y="24" type="line"/>
      <point x="123" y="24" type="line"/>
      <point x="123" y="0" type="line"/>
    </contour>
    <contour>
      <point x="88" y="580" type="line"/>
      <point x="62" y="580" type="line"/>
      <point x="33" y="629" type="line"/>
      <point x="33" y="630" type="line"/>
      <point x="59" y="630" type="line"/>
    </contour>
    <contour>
      <point x="114" y="580" type="line"/>
      <point x="143" y="630" type="line"/>
      <point x="169" y="630" type="line"/>
      <point x="169" y="629" type="line"/>
      <point x="140" y="580" type="line"/>
    </contour>
    <contour>
      <point x="127" y="558" type="line"/>
      <point x="75" y="558" type="line"/>
      <point x="62" y="580" type="line"/>
      <point x="140" y="580" type="line"/>
    </contour>
    <contour>
      <point x="143" y="709" type="line"/>
      <point x="66" y="709" type="line"/>
      <point x="66" y="733" type="line"/>
      <point x="125" y="733" type="line"/>
      <point x="143" y="710" type="line"/>
    </contour>
    <contour>
      <point x="110" y="638" type="line"/>
      <point x="87" y="638" type="line"/>
      <point x="87" y="639" type="line"/>
      <point x="125" y="733" type="line"/>
      <point x="143" y="710" type="line"/>
      <point x="143" y="709" type="line"/>
    </contour>
  </outline>
</glyph>
<glyph name="abrevetilde.color8" format="2">
  <advance width="600"/>
  <unicode hex="1EB5"/>
  <outline>
    <contour>
      <point x="153" y="727" type="line"/>
      <point x="153" y="675" type="line"/>
      <point x="133" y="675" type="line"/>
      <point x="133" y="727" type="line"/>
    </contour>
  </outline>
</glyph>
<glyph name="ecircumflexgrave.color5" format="2">
  <advance width="600"/>
  <unicode hex="1EC1"/>
  <outline>
    <contour>
      <point x="115" y="662" type="line"/>
      <point x="91" y="662" type="line"/>
      <point x="59" y="771" type="line"/>
      <point x="59" y="772" type="line"/>
      <point x="90" y="772" type="line"/>
    </contour>
  </outline>
</glyph>
<glyph name="Ecircumflextilde.color7" format="2">
  <advance width="600"/>
  <unicode hex="1EC4"/>
  <outline>
    <contour>
      <point x="204" y="740" type="line"/>
      <point x="174" y="740" type="line"/>
      <point x="120" y="815" type="line"/>
      <point x="150" y="815" type="line"/>
      <point x="204" y="741" type="line"/>
    </contour>
  </outline>
</glyph>
<glyph name="ecircumflextilde" format="2">
  <advance width="197"/>
  <unicode hex="1EC5"/>
  <anchor x="101" y="0" name="bottom"/>
  <anchor x="100" y="500" name="top"/>
  <outline>
    <contour>
      <point x="50" y="477" type="line"/>
      <point x="73" y="500" type="line"/>
      <point x="74" y="500" type="line"/>
      <point x="74" y="24" type="line"/>
      <point x="50" y="24" type="line"/>
    </contour>
    <contour>
      <point x="124" y="500" type="line"/>
      <point x="147" y="477" type="line"/>
      <point x="147" y="476" type="line"/>
      <point x="74" y="476" type="line"/>
      <point x="74" y="500" type="line"/>
    </contour>
    <contour>
      <point x="73" y="0" type="line"/>
      <point x="50" y="23" type="line"/>
      <point x="50" y="24" type="line"/>
      <point x="147" y="24" type="line"/>
      <point x="147" y="23" type="line"/>
      <point x="124" y="0" type="line"/>
    </contour>
    <contour>
      <point x="123" y="226" type="line"/>
      <point x="123" y="202" type="line"/>
      <point x="74" y="202" type="line"/>
      <point x="74" y="226" type="line"/>
    </contour>
    <contour>
      <point x="147" y="225" type="line"/>
      <point x="124" y="202" type="line"/>
      <point x="123" y="202" type="line"/>
      <point x="123" y="476" type="line"/>
      <point x="147" y="476" type="line"/>
    </contour>
    <contour>
      <point x="158" y="540" type="line"/>
      <point x="134" y="540" type="line"/>
      <point x="90" y="630" type="line"/>
      <point x="113" y="630" type="line"/>
      <point x="114" y="630" type="line"/>
      <point x="158" y="541" type="line"/>
    </contour>
    <contour>
      <point x="44" y="540" type="line"/>
      <point x="44" y="541" type="line"/>
      <point x="90" y="630" type="line"/>
      <point x="113" y="630" type="line"/>
      <point x="68" y="540" type="line"/>
    </contour>
    <contour>
      <point x="57" y="663" type="line"/>
      <point x="57" y="714" type="line"/>
      <point x="77" y="715" type="line"/>
      <point x="77" y="663" type="line"/>
    </contour>
    <contour>
      <point x="158" y="724" type="line"/>
      <point x="158" y="672" type="line"/>
      <point x="138" y="672" type="line"/>
      <point x="138" y="724" type="line"/>
    </contour>
    <contour>
      <point x="57" y="714" type="line"/>
      <point x="57" y="715" type="line"/>
      <point x="77" y="724" type="line"/>
      <point x="78" y="724" type="line"/>
      <point x="157" y="672" type="line"/>
      <point x="157" y="671" type="line"/>
      <point x="137" y="662" type="line"/>
      <point x="136" y="662" type="line"/>
    </contour>
  </outline>
</glyph>
<glyph name="Ihookabove.color5" format="2">
  <advance width="600"/>
  <unicode hex="1EC8"/>
  <outline>
    <contour>
      <point x="156" y="846" type="line"/>
      <point x="79" y="846" type="line"/>
      <point x="79" y="870" type="line"/>
      <point x="138" y="870" type="line"/>
      <point x="156" y="847" type="line"/>
    </contour>
  </outline>
</glyph>
<glyph name="Ihookabove.color6" format="2">
  <advance width="600"/>
  <unicode hex="1EC8"/>
  <outline>
    <contour>
      <point x="123" y="739" type="line"/>
      <point x="100" y="739" type="line"/>
      <point x="100" y="740" type="line"/>
      <point x="138" y="870" type="line"/>
      <point x="156" y="847" type="line"/>
      <point x="156" y="846" type="line"/>
    </contour>
  </outline>
</glyph>
<glyph name="idotbelow.color1" format="2">
  <advance width="600"/>
  <unicode hex="1ECB"/>
  <outline>
    <contour>
      <point x="74" y="565" type="line"/>
      <point x="51" y="542" type="line"/>
      <point x="50" y="542" type="line"/>
      <point x="50" y="615" type="line"/>
      <point x="74" y="615" type="line"/>
    </contour>
  </outline>
</glyph>
<glyph name="idotbelow.color2" format="2">
  <advance width="600"/>
  <unicode hex="1ECB"/>
  <outline>
    <contour>
      <point x="78" y="-119" type="line"/>
      <point x="48" y="-119" type="line"/>
      <point x="48" y="-85" type="line"/>
      <point x="78" y="-85" type="line"/>
    </contour>
  </outline>
</glyph>
<glyph name="Odotbelow.color4" format="2">
  <advance width="600"/>
  <unicode hex="1ECC"/>
  <outline>
    <contour>
      <point x="158" y="-119" type="line"/>
      <point x="128" y="-119" type="line"/>
      <point x="128" y="-85" type="line"/>
      <point x="158" y="-85" type="line"/>
    </contour>
  </outline>
</glyph>
<glyph name="odotbelow.color3" format="2">
  <advance width="600"/>
  <unicode hex="1ECD"/>
  <outline>
    <contour>
      <point x="73" y="0" type="line"/>
      <point x="50" y="23" type="line"/>
      <point x="50" y="24" type="line"/>
      <point x="124" y="24" type="line"/>
      <point x="124" y="0" type="line"/>
    </contour>
  </outline>
</glyph>
<glyph name="ocircumflexacute" format="2">
  <advance width="198"/>
  <unicode hex="1ED1"/>
  <anchor x="99" y="0" name="bottom"/>
  <anchor x="124" y="500" name="horn"/>
  <anchor x="99" y="500" name="top"/>
  <outline>
    <contour>
      <point x="50" y="477" type="line"/>
      <point x="73" y="500" type="line"/>
      <point x="74" y="500" type="line"/>
      <point x="74" y="24" type="line"/>
      <point x="50" y="24" type="line"/>
    </contour>
    <contour>
      <point x="125" y="500" type="line"/>
      <point x="148" y="477" type="line"/>
      <point x="148" y="476" type="line"/>
      <point x="74" y="476" type="line"/>
      <point x="74" y="500" type="line"/>
    </contour>
    <contour>
      <point x="148" y="23" type="line"/>
      <point x="125" y="0" type="line"/>
      <point x="124" y="0" type="line"/>
      <point x="124" y="476" type="line"/>
      <point x="148" y="476" type="line"/>
    </contour>
    <contour>
      <point x="73" y="0" type="line"/>
      <point x="50" y="23" type="line"/>
      <point x="50" y="24" type="line"/>
      <point x="124" y="24" type="line"/>
      <point x="124" y="0" type="line"/>
    </contour>
    <contour>
      <point x="88" y="663" type="line"/>
      <point x="113" y="772" type="line"/>
      <point x="144" y="772" type="line"/>
      <point x="144" y="771" type="line"/>
      <point x="112" y="663" type="line"/>
    </contour>
    <contour>
      <point x="157" y="540" type="line"/>
      <point x="133" y="540" type="line"/>
      <point x="89" y="630" type="line"/>
      <point x="112" y="630" type="line"/>
      <point x="113" y="630" type="line"/>
      <point x="157" y="541" type="line"/>
    </contour>
    <contour>
      <point x="43" y="540" type="line"/>
      <point x="43" y="541" type="line"/>
      <point x="89" y="630" type="line"/>
      <point x="112" y="630" type="line"/>
      <point x="67" y="540" type="line"/>
    </contour>
  </outline>
</glyph>
<glyph name="ocircumflexhookabove" format="2">
  <advance width="198"/>
  <unicode hex="1ED5"/>
  <anchor x="99" y="0" name="bottom"/>
  <anchor x="124" y="500" name="horn"/>
  <anchor x="99" y="500" name="top"/>
  <outline>
    <contour>
      <point x="50" y="477" type="line"/>
      <point x="73" y="500" type="line"/>
      <point x="74" y="500" type="line"/>
      <point x="74" y="24" type="line"/>
      <point x="50" y="24" type="line"/>
    </contour>
    <contour>
      <point x="125" y="500" type="line"/>
      <point x="148" y="477" type="line"/>
      <point x="148" y="476" type="line"/>
      <point x="74" y="476" type="line"/>
      <point x="74" y="500" type="line"/>
    </contour>
    <contour>
      <point x="148" y="23" type="line"/>
      <point x="125" y="0" type="line"/>
      <point x="124" y="0" type="line"/>
      <point x="124" y="476" type="line"/>
      <point x="148" y="476" type="line"/>
    </contour>
    <contour>
      <point x="73" y="0" type="line"/>
      <point x="50" y="23" type="line"/>
      <point x="50" y="24" type="line"/>
      <point x="124" y="24" type="line"/>
      <point x="124" y="0" type="line"/>
    </contour>
    <contour>
      <point x="157" y="540" type="line"/>
      <point x="133" y="540" type="line"/>
      <point x="89" y="630" type="line"/>
      <point x="112" y="630" type="line"/>
      <point x="113" y="630" type="line"/>
      <point x="157" y="541" type="line"/>
    </contour>
    <contour>
      <point x="43" y="540" type="line"/>
      <point x="43" y="541" type="line"/>
      <point x="89" y="630" type="line"/>
      <point x="112" y="630" type="line"/>
      <point x="67" y="540" type="line"/>
    </contour>
    <contour>
      <point x="148" y="746" type="line"/>
      <point x="71" y="746" type="line"/>
      <point x="71" y="770" type="line"/>
      <point x="130" y="770" type="line"/>
      <point x="148" y="747" type="line"/>
    </contour>
    <contour>
      <point x="115" y="675" type="line"/>
      <point x="92" y="675" type="line"/>
      <point x="92" y="676" type="line"/>
      <point x="130" y="770" type="line"/>
      <point x="148" y="747" type="line"/>
      <point x="148" y="746" type="line"/>
    </contour>
  </outline>
</glyph>
<glyph name="ohornhookabove.color7" format="2">
  <advance width="600"/>
  <unicode hex="1EDF"/>
  <outline>
    <contour>
      <point x="108" y="583" type="line"/>
      <point x="85" y="583" type="line"/>
      <point x="85" y="584" type="line"/>
      <point x="123" y="678" type="line"/>
      <point x="141" y="655" type="line"/>
      <point x="141" y="654" type="line"/>
    </contour>
  </outline>
</glyph>
<glyph name="Uhornacute.color5" format="2">
  <advance width="600"/>
  <unicode hex="1EE8"/>
  <outline>
    <contour>
      <point x="125" y="736" type="line"/>
      <point x="145" y="856" type="line"/>
      <point x="176" y="856" type="line"/>
      <point x="176" y="855" type="line"/>
      <point x="149" y="736" type="line"/>
    </contour>
  </outline>
</glyph>
<glyph name="uhorndotbelow" format="2">
  <advance width="197"/>
  <unicode hex="1EF1"/>
  <anchor x="102" y="0" name="bottom"/>
  <anchor x="123" y="500" name="horn"/>
  <anchor x="100" y="500" name="top"/>
  <outline>
    <contour>
      <point x="147" y="0" type="line"/>
      <point x="124" y="0" type="line"/>
      <point x="123" y="0" type="line"/>
      <point x="123" y="500" type="line"/>
      <point x="147" y="500" type="line"/>
    </contour>
    <contour>
      <point x="73" y="0" type="line"/>
      <point x="50" y="23" type="line"/>
      <point x="50" y="24" type="line"/>
      <point x="123" y="24" type="line"/>
      <point x="123" y="0" type="line"/>
    </contour>
    <contour>
      <point x="50" y="483" type="line"/>
      <point x="73" y="506" type="line"/>
      <point x="74" y="506" type="line"/>
      <point x="74" y="24" type="line"/>
      <point x="50" y="24" type="line"/>
    </contour>
    <contour>
      <point x="123" y="500" type="line"/>
      <point x="154" y="500" type="line"/>
      <point x="154" y="476" type="line"/>
      <point x="146" y="476" type="line"/>
    </contour>
    <contour>
      <point x="178" y="499" type="line"/>
      <point x="155" y="476" type="line"/>
      <point x="154" y="476" type="line"/>
      <point x="154" y="567" type="line"/>
      <point x="178" y="567" type="line"/>
    </contour>
    <contour>
      <point x="118" y="-119" type="line"/>
      <point x="88" y="-119" type="line"/>
      <point x="88" y="-85" type="line"/>
      <point x="118" y="-85" type="line"/>
    </contour>
  </outline>
</glyph>
<glyph name="Ygrave.color0" format="2">
  <advance width="600"/>
  <unicode hex="1EF2"/>
  <outline>
    <contour>
      <point x="23" y="700" type="line"/>
      <point x="47" y="700" type="line"/>
      <point x="140" y="356" type="line"/>
      <point x="118" y="350" type="line"/>
      <point x="117" y="350" type="line"/>
    </contour>
  </outline>
</glyph>
<glyph name="ydotbelow.color2" format="2">
  <advance width="600"/>
  <unicode hex="1EF5"/>
  <outline>
    <contour>
      <point x="50" y="477" type="line"/>
      <point x="73" y="503" type="line"/>
      <point x="74" y="503" type="line"/>
      <point x="74" y="24" type="line"/>
      <point x="50" y="24" type="line"/>
    </contour>
  </outline>
</glyph>
<glyph name="Yhookabove" format="2">
  <advance width="250"/>
  <unicode hex="1EF6"/>
  <anchor x="129" y="0" name="bottom"/>
  <anchor x="127" y="700" name="top"/>
  <outline>
    <contour>
      <point x="23" y="700" type="line"/>
      <point x="47" y="700" type="line"/>
      <point x="140" y="356" type="line"/>
      <point x="118" y="350" type="line"/>
      <point x="117" y="350" type="line"/>
    </contour>
    <contour>
      <point x="227" y="700" type="line"/>
      <point x="141" y="350" type="line"/>
      <point x="118" y="350" type="line"/>
      <point x="203" y="700" type="line"/>
    </contour>
    <contour>
      <point x="141" y="0" type="line"/>
      <point x="117" y="0" type="line"/>
      <point x="117" y="350" type="line"/>
      <point x="141" y="350" type="line"/>
    </contour>
    <contour>
      <point x="168" y="846" type="line"/>
      <point x="91" y="846" type="line"/>
      <point x="91" y="870" type="line"/>
      <point x="150" y="870" type="line"/>
      <point x="168" y="847" type="line"/>
    </contour>
    <contour>
      <point x="135" y="739" type="line"/>
      <point x="112" y="739" type="line"/>
      <point x="112" y="740" type="line"/>
      <point x="150" y="870" type="line"/>
      <point x="168" y="847" type="line"/>
      <point x="168" y="846" type="line"/>
    </contour>
  </outline>
</glyph>
<glyph name="yhookabove.color1" format="2">
  <advance width="600"/>
  <unicode hex="1EF7"/>
  <outline>
    <contour>
      <point x="146" y="-177" type="line"/>
      <point x="124" y="-200" type="line"/>
      <point x="123" y="-200" type="line"/>
      <point x="123" y="500" type="line"/>
      <point x="147" y="500" type="line"/>
    </contour>
  </outline>
</glyph>
<glyph name="yhookabove" format="2">
  <advance width="197"/>
  <unicode hex="1EF7"/>
  <anchor x="99" y="-200" name="bottom"/>
  <anchor x="100" y="500" name="top"/>
  <outline>
    <contour>
      <point x="73" y="0" type="line"/>
      <point x="50" y="23" type="line"/>
      <point x="50" y="24" type="line"/>
      <point x="123" y="24" type="line"/>
      <point x="123" y="0" type="line"/>
    </contour>
    <contour>
      <point x="146" y="-177" type="line"/>
      <point x="124" y="-200" type="line"/>
      <point x="123" y="-200" type="line"/>
      <point x="123" y="500" type="line"/>
      <point x="147" y="500" type="line"/>
    </contour>
    <contour>
      <point x="50" y="477" type="line"/>
      <point x="73" y="503" type="line"/>
      <point x="74" y="503" type="line"/>
      <point x="74" y="24" type="line"/>
      <point x="50" y="24" type="line"/>
    </contour>
    <contour>
      <point x="50" y="-200" type="line"/>
      <point x="50" y="-177" type="line"/>
      <point x="50" y="-176" type="line"/>
      <point x="123" y="-176" type="line"/>
      <point x="123" y="-200" type="line"/>
    </contour>
    <contour>
      <point x="142" y="654" type="line"/>
      <point x="65" y="654" type="line"/>
      <point x="65" y="678" type="line"/>
      <point x="124" y="678" type="line"/>
      <point x="142" y="655" type="line"/>
    </contour>
    <contour>
      <point x="109" y="583" type="line"/>
      <point x="86" y="583" type="line"/>
      <point x="86" y="584" type="line"/>
      <point x="124" y="678" type="line"/>
      <point x="142" y="655" type="line"/>
      <point x="142" y="654" type="line"/>
    </contour>
  </outline>
</glyph>
<glyph name="Ytilde.color5" format="2">
  <advance width="600"/>
  <unicode hex="1EF8"/>
  <outline>
    <contour>
      <point x="66" y="837" type="line"/>
      <point x="66" y="838" type="line"/>
      <point x="88" y="847" type="line"/>
      <point x="89" y="847" type="line"/>
      <point x="185" y="795" type="line"/>
      <point x="185" y="794" type="line"/>
      <point x="163" y="785" type="line"/>
      <point x="162" y="785" type="line"/>
    </contour>
  </outline>
</glyph>
<glyph name="ytilde.color4" format="2">
  <advance width="600"/>
  <unicode hex="1EF9"/>
  <outline>
    <contour>
      <point x="50" y="581" type="line"/>
      <point x="50" y="632" type="line"/>
      <point x="70" y="633" type="line"/>
      <point x="70" y="581" type="line"/>
    </contour>
  </outline>
</glyph>
<glyph name="ytilde" format="2">
  <advance width="197"/>
  <unicode hex="1EF9"/>
  <anchor x="99" y="-200" name="bottom"/>
  <anchor x="100" y="500" name="top"/>
  <outline>
    <contour>
      <point x="73" y="0" type="line"/>
      <point x="50" y="23" type="line"/>
      <point x="50" y="24" type="line"/>
      <point x="123" y="24" type="line"/>
      <point x="123" y="0" type="line"/>
    </contour>
    <contour>
      <point x="146" y="-177" type="line"/>
      <point x="124" y="-200" type="line"/>
      <point x="123" y="-200" type="line"/>
      <point x="123" y="500" type="line"/>
      <point x="147" y="500" type="line"/>
    </contour>
    <contour>
      <point x="50" y="477" type="line"/>
      <point x="73" y="503" type="line"/>
      <point x="74" y="503" type="line"/>
      <point x="74" y="24" type="line"/>
      <point x="50" y="24" type="line"/>
    </contour>
    <contour>
      <point x="50" y="-200" type="line"/>
      <point x="50" y="-177" type="line"/>
      <point x="50" y="-176" type="line"/>
      <point x="123" y="-176" type="line"/>
      <point x="123" y="-200" type="line"/>
    </contour>
    <contour>
      <point x="50" y="581" type="line"/>
      <point x="50" y="632" type="line"/>
      <point x="70" y="633" type="line"/>
      <point x="70" y="581" type="line"/>
    </contour>
    <contour>
      <point x="151" y="642" type="line"/>
      <point x="151" y="590" type="line"/>
      <point x="131" y="590" type="line"/>
      <point x="131" y="642" type="line"/>
    </contour>
    <contour>
      <point x="50" y="632" type="line"/>
      <point x="50" y="633" type="line"/>
      <point x="70" y="642" type="line"/>
      <point x="71" y="642" type="line"/>
      <point x="150" y="590" type="line"/>
      <point x="150" y="589" type="line"/>
      <point x="130" y="580" type="line"/>
      <point x="129" y="580" type="line"/>
    </contour>
  </outline>
</glyph>
<glyph name="perthousand.color0" format="2">
  <advance width="600"/>
  <unicode hex="2030"/>
  <outline>
    <contour>
      <point x="411" y="297" type="line"/>
      <point x="434" y="320" type="line"/>
      <point x="435" y="320" type="line"/>
      <point x="435" y="44" type="line"/>
      <point x="411" y="44" type="line"/>
    </contour>
  </outline>
</glyph>
<glyph name="perthousand" format="2">
  <advance width="562"/>
  <unicode hex="2030"/>
  <outline>
    <contour>
      <point x="411" y="297" type="line"/>
      <point x="434" y="320" type="line"/>
      <point x="435" y="320" type="line"/>
      <point x="435" y="44" type="line"/>
      <point x="411" y="44" type="line"/>
    </contour>
    <contour>
      <point x="486" y="320" type="line"/>
      <point x="509" y="297" type="line"/>
      <point x="509" y="296" type="line"/>
      <point x="435" y="296" type="line"/>
      <point x="435" y="320" type="line"/>
    </contour>
    <contour>
      <point x="509" y="43" type="line"/>
      <point x="486" y="20" type="line"/>
      <point x="485" y="20" type="line"/>
      <point x="485" y="296" type="line"/>
      <point x="509" y="296" type="line"/>
    </contour>
    <contour>
      <point x="434" y="20" type="line"/>
      <point x="411" y="43" type="line"/>
      <point x="411" y="44" type="line"/>
      <point x="485" y="44" type="line"/>
      <point x="485" y="20" type="line"/>
    </contour>
    <component base="percent"/>
  </outline>
</glyph>
<glyph name="fraction" format="2">
  <advance width="374"/>
  <unicode hex="2044"/>
  <outline>
    <contour>
      <point x="321" y="700" type="line"/>
      <point x="321" y="699" type="line"/>
      <point x="76" y="0" type="line"/>
      <point x="53" y="0" type="line"/>
      <point x="53" y="1" type="line"/>
      <point x="298" y="700" type="line"/>
    </contour>
  </outline>
</glyph>
<glyph name="commercialMinusSign.color5" format="2">
  <advance width="600"/>
  <unicode hex="2052"/>
  <outline>
    <contour>
      <point x="299" y="138" type="line"/>
      <point x="299" y="94" type="line"/>
      <point x="265" y="94" type="line"/>
      <point x="265" y="138" type="line"/>
    </contour>
  </outline>
</glyph>
<glyph name="foursuperior" format="2">
  <advance width="235"/>
  <unicode hex="2074"/>
  <outline>
    <contour>
      <point x="158" y="534" type="line"/>
      <point x="71" y="534" type="line"/>
      <point x="72" y="558" type="line"/>
      <point x="158" y="558" type="line"/>
    </contour>
    <contour>
      <point x="114" y="700" type="line"/>
      <point x="142" y="700" type="line"/>
      <point x="142" y="699" type="line"/>
      <point x="71" y="534" type="line"/>
      <point x="53" y="558" type="line"/>
    </contour>
    <contour>
      <point x="182" y="430" type="line"/>
      <point x="158" y="430" type="line"/>
      <point x="158" y="558" type="line"/>
      <point x="159" y="558" type="line"/>
      <point x="182" y="534" type="line"/>
    </contour>
  </outline>
</glyph>
<glyph name="colonsign" format="2">
  <advance width="268"/>
  <unicode hex="20A1"/>
  <outline>
    <contour>
      <point x="202" y="700" type="line"/>
      <point x="225" y="677" type="line"/>
      <point x="225" y="676" type="line"/>
      <point x="82" y="676" type="line"/>
      <point x="82" y="700" type="line"/>
    </contour>
    <contour>
      <point x="58" y="677" type="line"/>
      <point x="81" y="700" type="line"/>
      <point x="82" y="700" type="line"/>
      <point x="82" y="24" type="line"/>
      <point x="58" y="24" type="line"/>
    </contour>
    <contour>
      <point x="148" y="756" type="line"/>
      <point x="148" y="755" type="line"/>
      <point x="76" y="-31" type="line"/>
      <point x="53" y="-55" type="line"/>
      <point x="53" y="-54" type="line"/>
      <point x="125" y="733" type="line"/>
    </contour>
    <contour>
      <point x="195" y="756" type="line"/>
      <point x="195" y="755" type="line"/>
      <point x="123" y="-31" type="line"/>
      <point x="100" y="-55" type="line"/>
      <point x="100" y="-54" type="line"/>
      <point x="172" y="733" type="line"/>
    </contour>
    <contour>
      <point x="81" y="0" type="line"/>
      <point x="58" y="23" type="line"/>
      <point x="58" y="24" type="line"/>
      <point x="225" y="24" type="line"/>
      <point x="202" y="0" type="line"/>
    </contour>
  </outline>
</glyph>
<glyph name="franc" format="2">
  <advance width="253"/>
  <unicode hex="20A3"/>
  <outline>
    <contour>
      <point x="157" y="213" type="line"/>
      <point x="180" y="190" type="line"/>
      <point x="180" y="189" type="line"/>
      <point x="21" y="188" type="line"/>
      <point x="21" y="189" type="line"/>
      <point x="-2" y="212" type="line"/>
    </contour>
    <component base="F" xOffset="15"/>
  </outline>
</glyph>
<glyph name="lira.color0" format="2">
  <advance width="600"/>
  <unicode hex="20A4"/>
  <outline>
    <contour>
      <point x="212" y="443" type="line"/>
      <point x="235" y="420" type="line"/>
      <point x="235" y="419" type="line"/>
      <point x="76" y="418" type="line"/>
      <point x="76" y="419" type="line"/>
      <point x="53" y="442" type="line"/>
    </contour>
  </outline>
</glyph>
<glyph name="naira.color3" format="2">
  <advance width="600"/>
  <unicode hex="20A6"/>
  <outline>
    <contour>
      <point x="365" y="309" type="line"/>
      <point x="388" y="286" type="line"/>
      <point x="388" y="285" type="line"/>
      <point x="23" y="284" type="line"/>
      <point x="23" y="285" type="line"/>
      <point x="0" y="308" type="line"/>
    </contour>
  </outline>
</glyph>
<glyph name="won.color1" format="2">
  <advance width="600"/>
  <unicode hex="20A9"/>
  <outline>
    <contour>
      <point x="279" y="699" type="line"/>
      <point x="163" y="0" type="line"/>
      <point x="140" y="0" type="line"/>
      <point x="255" y="700" type="line"/>
    </contour>
  </outline>
</glyph>
<glyph name="dong.color4" format="2">
  <advance width="600"/>
  <unicode hex="20AB"/>
  <outline>
    <contour>
      <point x="77" y="60" type="line"/>
      <point x="54" y="83" type="line"/>
      <point x="54" y="84" type="line"/>
      <point x="127" y="84" type="line"/>
      <point x="127" y="60" type="line"/>
    </contour>
  </outline>
</glyph>
<glyph name="euro.color1" format="2">
  <advance width="600"/>
  <unicode hex="20AC"/>
  <outline>
    <contour>
      <point x="252" y="354" type="line"/>
      <point x="275" y="331" type="line"/>
      <point x="275" y="330" type="line"/>
      <point x="76" y="329" type="line"/>
      <point x="76" y="330" type="line"/>
      <point x="53" y="353" type="line"/>
    </contour>
  </outline>
</glyph>
<glyph name="euro" format="2">
  <advance width="328"/>
  <unicode hex="20AC"/>
  <outline>
    <contour>
      <point x="252" y="443" type="line"/>
      <point x="275" y="420" type="line"/>
      <point x="275" y="419" type="line"/>
      <point x="76" y="418" type="line"/>
      <point x="76" y="419" type="line"/>
      <point x="53" y="442" type="line"/>
    </contour>
    <contour>
      <point x="252" y="354" type="line"/>
      <point x="275" y="331" type="line"/>
      <point x="275" y="330" type="line"/>
      <point x="76" y="329" type="line"/>
      <point x="76" y="330" type="line"/>
      <point x="53" y="353" type="line"/>
    </contour>
    <component base="C" xOffset="55"/>
  </outline>
</glyph>
<glyph name="kip" format="2">
  <advance width="346"/>
  <unicode hex="20AD"/>
  <outline>
    <contour>
      <point x="322" y="377" type="line"/>
      <point x="345" y="354" type="line"/>
      <point x="345" y="353" type="line"/>
      <point x="36" y="352" type="line"/>
      <point x="36" y="353" type="line"/>
      <point x="13" y="376" type="line"/>
    </contour>
    <component base="K" xOffset="20"/>
  </outline>
</glyph>
<glyph name="liraTurkish.color0" format="2">
  <advance width="600"/>
  <unicode hex="20BA"/>
  <outline>
    <contour>
      <point x="261" y="556" type="line"/>
      <point x="261" y="555" type="line"/>
      <point x="39" y="245" type="line"/>
      <point x="36" y="285" type="line"/>
      <point x="36" y="286" type="line"/>
      <point x="258" y="596" type="line"/>
    </contour>
  </outline>
</glyph>
<glyph name="ruble.color3" format="2">
  <advance width="600"/>
  <unicode hex="20BD"/>
  <outline>
    <contour>
      <point x="214" y="333" type="line"/>
      <point x="237" y="310" type="line"/>
      <point x="237" y="309" type="line"/>
      <point x="28" y="309" type="line"/>
      <point x="5" y="332" type="line"/>
      <point x="5" y="333" type="line"/>
    </contour>
  </outline>
</glyph>
<glyph name="ruble" format="2">
  <advance width="278"/>
  <unicode hex="20BD"/>
  <outline>
    <contour>
      <point x="220" y="700" type="line"/>
      <point x="243" y="677" type="line"/>
      <point x="243" y="676" type="line"/>
      <point x="99" y="676" type="line"/>
      <point x="99" y="700" type="line"/>
    </contour>
    <contour>
      <point x="243" y="376" type="line"/>
      <point x="220" y="353" type="line"/>
      <point x="219" y="353" type="line"/>
      <point x="219" y="676" type="line"/>
      <point x="243" y="676" type="line"/>
    </contour>
    <contour>
      <point x="99" y="353" type="line"/>
      <point x="99" y="376" type="line"/>
      <point x="99" y="377" type="line"/>
      <point x="219" y="377" type="line"/>
      <point x="219" y="353" type="line"/>
    </contour>
    <contour>
      <point x="214" y="333" type="line"/>
      <point x="237" y="310" type="line"/>
      <point x="237" y="309" type="line"/>
      <point x="28" y="309" type="line"/>
      <point x="5" y="332" type="line"/>
      <point x="5" y="333" type="line"/>
    </contour>
    <contour>
      <point x="75" y="677" type="line"/>
      <point x="98" y="700" type="line"/>
      <point x="99" y="700" type="line"/>
      <point x="99" y="0" type="line"/>
      <point x="75" y="0" type="line"/>
    </contour>
    <contour>
      <point x="28" y="353" type="line"/>
      <point x="5" y="376" type="line"/>
      <point x="5" y="377" type="line"/>
      <point x="75" y="377" type="line"/>
      <point x="75" y="353" type="line"/>
    </contour>
  </outline>
</glyph>
<glyph name="numero.color4" format="2">
  <advance width="600"/>
  <unicode hex="2116"/>
  <outline>
    <contour>
      <point x="335" y="0" type="line"/>
      <point x="335" y="23" type="line"/>
      <point x="335" y="24" type="line"/>
      <point x="433" y="24" type="line"/>
      <point x="433" y="0" type="line"/>
    </contour>
  </outline>
</glyph>
<glyph name="numero" format="2">
  <advance width="517"/>
  <unicode hex="2116"/>
  <outline>
    <contour>
      <point x="335" y="477" type="line"/>
      <point x="358" y="500" type="line"/>
      <point x="359" y="500" type="line"/>
      <point x="359" y="124" type="line"/>
      <point x="335" y="124" type="line"/>
    </contour>
    <contour>
      <point x="410" y="500" type="line"/>
      <point x="433" y="477" type="line"/>
      <point x="433" y="476" type="line"/>
      <point x="359" y="476" type="line"/>
      <point x="359" y="500" type="line"/>
    </contour>
    <contour>
      <point x="433" y="123" type="line"/>
      <point x="410" y="100" type="line"/>
      <point x="409" y="100" type="line"/>
      <point x="409" y="476" type="line"/>
      <point x="433" y="476" type="line"/>
    </contour>
    <contour>
      <point x="358" y="100" type="line"/>
      <point x="335" y="123" type="line"/>
      <point x="335" y="124" type="line"/>
      <point x="409" y="124" type="line"/>
      <point x="409" y="100" type="line"/>
    </contour>
    <contour>
      <point x="335" y="0" type="line"/>
      <point x="335" y="23" type="line"/>
      <point x="335" y="24" type="line"/>
      <point x="433" y="24" type="line"/>
      <point x="433" y="0" type="line"/>
    </contour>
    <component base="N"/>
  </outline>
</glyph>
<glyph name="approxequal.color2" format="2">
  <advance width="600"/>
  <unicode hex="2248"/>
  <outline>
    <contour>
      <point x="53" y="228" type="line"/>
      <point x="53" y="279" type="line"/>
      <point x="77" y="299" type="line"/>
      <point x="77" y="228" type="line"/>
    </contour>
  </outline>
</glyph>
<glyph name="fi.color4" format="2">
  <advance width="600"/>
  <unicode hex="FB01"/>
  <outline>
    <contour>
      <point x="233" y="480" type="line"/>
      <point x="256" y="503" type="line"/>
      <point x="257" y="503" type="line"/>
      <point x="257" y="0" type="line"/>
      <point x="233" y="0" type="line"/>
    </contour>
  </outline>
</glyph>
<glyph name="fi.color5" format="2">
  <advance width="600"/>
  <unicode hex="FB01"/>
  <outline>
    <contour>
      <point x="257" y="565" type="line"/>
      <point x="234" y="542" type="line"/>
      <point x="233" y="542" type="line"/>
      <point x="233" y="615" type="line"/>
      <point x="257" y="615" type="line"/>
    </contour>
  </outline>
</glyph>
<glyph name="fi" format="2">
  <advance width="313"/>
  <unicode hex="FB01"/>
  <anchor x="245" y="0" name="bottom_1"/>
  <outline>
    <contour>
      <point x="77" y="353" type="line"/>
      <point x="54" y="377" type="line"/>
      <point x="131" y="377" type="line"/>
      <point x="131" y="353" type="line"/>
    </contour>
    <contour>
      <point x="53" y="677" type="line"/>
      <point x="76" y="700" type="line"/>
      <point x="77" y="700" type="line"/>
      <point x="77" y="377" type="line"/>
      <point x="53" y="377" type="line"/>
    </contour>
    <contour>
      <point x="137" y="700" type="line"/>
      <point x="160" y="677" type="line"/>
      <point x="160" y="676" type="line"/>
      <point x="77" y="676" type="line"/>
      <point x="77" y="700" type="line"/>
    </contour>
    <contour>
      <point x="77" y="353" type="line"/>
      <point x="77" y="0" type="line"/>
      <point x="53" y="0" type="line"/>
      <point x="53" y="377" type="line"/>
      <point x="54" y="377" type="line"/>
    </contour>
    <contour>
      <point x="233" y="480" type="line"/>
      <point x="256" y="503" type="line"/>
      <point x="257" y="503" type="line"/>
      <point x="257" y="0" type="line"/>
      <point x="233" y="0" type="line"/>
    </contour>
    <contour>
      <point x="257" y="565" type="line"/>
      <point x="234" y="542" type="line"/>
      <point x="233" y="542" type="line"/>
      <point x="233" y="615" type="line"/>
      <point x="257" y="615" type="line"/>
    </contour>
  </outline>
</glyph>
<glyph name="fl.color4" format="2">
  <advance width="600"/>
  <unicode hex="FB02"/>
  <outline>
    <contour>
      <point x="233" y="730" type="line"/>
      <point x="257" y="730" type="line"/>
      <point x="257" y="0" type="line"/>
      <point x="256" y="0" type="line"/>
      <point x="233" y="23" type="line"/>
    </contour>
  </outline>
</glyph>
<glyph name="fl" format="2">
  <advance width="365"/>
  <unicode hex="FB02"/>
  <anchor x="275" y="0" name="bottom_1"/>
  <anchor x="257" y="730" name="top_1"/>
  <outline>
    <contour>
      <point x="77" y="353" type="line"/>
      <point x="54" y="377" type="line"/>
      <point x="131" y="377" type="line"/>
      <point x="131" y="353" type="line"/>
    </contour>
    <contour>
      <point x="53" y="677" type="line"/>
      <point x="76" y="700" type="line"/>
      <point x="77" y="700" type="line"/>
      <point x="77" y="377" type="line"/>
      <point x="53" y="377" type="line"/>
    </contour>
    <contour>
      <point x="137" y="700" type="line"/>
      <point x="160" y="677" type="line"/>
      <point x="160" y="676" type="line"/>
      <point x="77" y="676" type="line"/>
      <point x="77" y="700" type="line"/>
    </contour>
    <contour>
      <point x="77" y="353" type="line"/>
      <point x="77" y="0" type="line"/>
      <point x="53" y="0" type="line"/>
      <point x="53" y="377" type="line"/>
      <point x="54" y="377" type="line"/>
    </contour>
    <contour>
      <point x="233" y="730" type="line"/>
      <point x="257" y="730" type="line"/>
      <point x="257" y="0" type="line"/>
      <point x="256" y="0" type="line"/>
      <point x="233" y="23" type="line"/>
    </contour>
    <contour>
      <point x="319" y="0" type="line"/>
      <point x="257" y="0" type="line"/>
      <point x="257" y="24" type="line"/>
      <point x="319" y="24" type="line"/>
      <point x="319" y="23" type="line"/>
    </contour>
  </outline>
</glyph>
<glyph name="brevecomb_gravecomb.case.color1" format="2">
  <outline>
    <contour>
      <point x="323" y="763" type="line"/>
      <point x="354" y="800" type="line"/>
      <point x="386" y="800" type="line"/>
      <point x="386" y="799" type="line"/>
      <point x="355" y="763" type="line"/>
    </contour>
  </outline>
</glyph>
<glyph name="brevecomb_gravecomb.color2" format="2">
  <outline>
    <contour>
      <point x="334" y="558" type="line"/>
      <point x="282" y="558" type="line"/>
      <point x="269" y="580" type="line"/>
      <point x="347" y="580" type="line"/>
    </contour>
  </outline>
</glyph>
<glyph name="circumflexcomb.case.color1" format="2">
  <outline>
    <contour>
      <point x="253" y="760" type="line"/>
      <point x="253" y="761" type="line"/>
      <point x="299" y="850" type="line"/>
      <point x="322" y="850" type="line"/>
      <point x="277" y="760" type="line"/>
    </contour>
  </outline>
</glyph>
<glyph name="circumflexcomb_gravecomb.case.color1" format="2">
  <outline>
    <contour>
      <point x="253" y="744" type="line"/>
      <point x="253" y="745" type="line"/>
      <point x="299" y="834" type="line"/>
      <point x="322" y="834" type="line"/>
      <point x="277" y="744" type="line"/>
    </contour>
  </outline>
</glyph>
<glyph name="circumflexcomb_hookabovecomb.case.color2" format="2">
  <outline>
    <contour>
      <point x="413" y="876" type="line"/>
      <point x="336" y="876" type="line"/>
      <point x="336" y="900" type="line"/>
      <point x="395" y="900" type="line"/>
      <point x="413" y="877" type="line"/>
    </contour>
  </outline>
</glyph>
<glyph name="eight.lf.color2" format="2">
  <advance width="600"/>
  <outline>
    <contour>
      <point x="66" y="647" type="line"/>
      <point x="89" y="670" type="line"/>
      <point x="90" y="670" type="line"/>
      <point x="90" y="377" type="line"/>
      <point x="66" y="377" type="line"/>
    </contour>
    <contour>
      <point x="224" y="647" type="line"/>
      <point x="224" y="377" type="line"/>
      <point x="200" y="377" type="line"/>
      <point x="200" y="670" type="line"/>
      <point x="201" y="670" type="line"/>
    </contour>
  </outline>
</glyph>
<glyph name="f_f_i.color8" format="2">
  <advance width="600"/>
  <outline>
    <contour>
      <point x="416" y="480" type="line"/>
      <point x="439" y="503" type="line"/>
      <point x="440" y="503" type="line"/>
      <point x="440" y="0" type="line"/>
      <point x="416" y="0" type="line"/>
    </contour>
  </outline>
</glyph>
<glyph name="f_f_i.color9" format="2">
  <advance width="600"/>
  <outline>
    <contour>
      <point x="440" y="565" type="line"/>
      <point x="417" y="542" type="line"/>
      <point x="416" y="542" type="line"/>
      <point x="416" y="615" type="line"/>
      <point x="440" y="615" type="line"/>
    </contour>
  </outline>
</glyph>
<glyph name="f_f_l.color6" format="2">
  <advance width="600"/>
  <outline>
    <contour>
      <point x="320" y="700" type="line"/>
      <point x="343" y="677" type="line"/>
      <point x="343" y="676" type="line"/>
      <point x="260" y="676" type="line"/>
      <point x="260" y="700" type="line"/>
    </contour>
  </outline>
</glyph>
<glyph name="f_f_l.color8" format="2">
  <advance width="600"/>
  <outline>
    <contour>
      <point x="416" y="730" type="line"/>
      <point x="440" y="730" type="line"/>
      <point x="440" y="0" type="line"/>
      <point x="439" y="0" type="line"/>
      <point x="416" y="23" type="line"/>
    </contour>
  </outline>
</glyph>
<glyph name="f_f_l.color9" format="2">
  <advance width="600"/>
  <outline>
    <contour>
      <point x="502" y="0" type="line"/>
      <point x="440" y="0" type="line"/>
      <point x="440" y="24" type="line"/>
      <point x="502" y="24" type="line"/>
      <point x="502" y="23" type="line"/>
    </contour>
  </outline>
</glyph>
<glyph name="five.lf.color0" format="2">
  <advance width="600"/>
  <outline>
    <contour>
      <point x="68" y="670" type="line"/>
      <point x="91" y="670" type="line"/>
      <point x="92" y="670" type="line"/>
      <point x="92" y="427" type="line"/>
      <point x="91" y="427" type="line"/>
      <point x="68" y="427" type="line"/>
    </contour>
  </outline>
</glyph>
<glyph name="ringcomb.case.color2" format="2">
  <outline>
    <contour>
      <point x="352" y="771" type="line"/>
      <point x="331" y="753" type="line"/>
      <point x="330" y="753" type="line"/>
      <point x="330" y="835" type="line"/>
      <point x="352" y="835" type="line"/>
    </contour>
  </outline>
</glyph>
<glyph name="six.lf.color2" format="2">
  <advance width="600"/>
  <outline>
    <contour>
      <point x="237" y="24" type="line"/>
      <point x="214" y="0" type="line"/>
      <point x="213" y="0" type="line"/>
      <point x="213" y="377" type="line"/>
      <point x="214" y="377" type="line"/>
      <point x="237" y="353" type="line"/>
    </contour>
  </outline>
</glyph>
<glyph name="test" format="2">
  <advance width="600"/>
  <outline>
    <contour>
      <point x="136" y="554" type="line"/>
      <point x="136" y="0" type="line"/>
      <point x="537" y="0" type="line"/>
      <point x="537" y="554" type="line"/>
    </contour>
  </outline>
</glyph>
<glyph name="tildecomb.case.color1" format="2">
  <outline>
    <contour>
      <point x="368" y="847" type="line"/>
      <point x="368" y="795" type="line"/>
      <point x="344" y="795" type="line"/>
      <point x="344" y="847" type="line"/>
    </contour>
  </outline>
</glyph>
<glyph name="tildecomb.case.color2" format="2">
  <outline>
    <contour>
      <point x="248" y="837" type="line"/>
      <point x="248" y="838" type="line"/>
      <point x="270" y="847" type="line"/>
      <point x="271" y="847" type="line"/>
      <point x="367" y="795" type="line"/>
      <point x="367" y="794" type="line"/>
      <point x="345" y="785" type="line"/>
      <point x="344" y="785" type="line"/>
    </contour>
  </outline>
</glyph>
<glyph name="two.lf.color2" format="2">
  <advance width="600"/>
  <outline>
    <contour>
      <point x="219" y="0" type="line"/>
      <point x="63" y="0" type="line"/>
      <point x="63" y="24" type="line"/>
      <point x="219" y="24" type="line"/>
      <point x="219" y="23" type="line"/>
    </contour>
  </outline>
</glyph>
